<?xml version="1.0" encoding="utf-8"?>
<svg xmlns="http://www.w3.org/2000/svg" viewBox="0 0 1370 805">
	<title>Body-plan of the Spray. The plan is in standard format, with the view from the bow shown on the right, and the view from the stern on the left. The plan has twelve cross section lines, and an indication of the waterline.</title>
	<path d="m682.234 48.415.572 48.476h-29.429c-23.619 0-29.428.286-29.428 1.334 0 1.047 5.524 1.238 28.952.857 23.714-.286 29.143-.096 29.524.952.19.762.667 65.905 1.048 144.857.285 78.952.666 144.952.761 146.762l.19 3.333-42.475-.095c-23.334 0-44.19.38-46.286.952-2 .477-3.524.477-3.238 0 .286-.38-4.762-.762-11.238-.762s-15.905 0-21.048-.095c-6-.19-9.904.19-10.762.953-1.238 1.047-1.333.952-.761-.572.476-1.333.38-1.619-.667-.952-.762.476-8.667.762-17.429.762-10.952-.096-16.476.19-17.523 1.047s-1.239.857-.762 0c.476-.762-.381-1.143-2.667-1.143-3.714 0-6.476 1.334-5.238 2.477.38.38 1.143.095 1.619-.667.571-.857.952-.952.952-.381.096 1.619 9.048 1.714 9.048.095 0-.857.286-.857.762-.095s10 1.143 29.714 1.238c16 0 30.286.381 31.81.667 1.523.38 2.761.19 2.761-.381 0-.667 1.143-.667 3.62 0 2.666.762 3.809.666 4.38-.19.477-.858.858-.858 1.429 0 .381.57 1.429.952 2.381.666.857-.286 21.905-.762 46.762-1.143l45.047-.667.19 47.048.096 47.143h-25.905v-29.905l-9.81-3.048c-5.332-1.619-13.523-3.904-18.19-4.952-29.142-6.762-36.571-8.38-54.571-12.095-18.667-3.81-26.762-5.333-52-10-9.905-1.81-23.047-4.381-52-10.19-8.19-1.62-19.238-3.905-24.476-4.858-21.524-4.285-61.905-14.38-66-16.571-2.19-1.143.762-1.333 20.381-1.333 16 0 22.667-.381 22.38-1.143-.19-.762-8.761-1.048-27.904-.953l-27.524.096-31.428-10.477c-40.857-13.619-38.381-12.666-53.524-20-17.619-8.476-24-12.952-35.905-25.047-8.666-8.667-10.762-11.429-14.666-19.524-10-20.476-10.667-45.714-2.19-79.524 2.19-8.666 17.809-54.666 23.904-70.476s19.143-44.952 20.857-46.666c2-2 50.286-7.715 104.095-12.381 6.667-.572 13.334-1.238 15.048-1.429 1.619-.19 5.143-.476 7.714-.667 2.667-.095 4.762-.571 4.762-1.142 0-.762-7.333-.477-20 .761-1.905.19-7.143.667-11.524.953-9.905.762-44.095 4.095-63.428 6.19-29.905 3.143-37.048 4.286-42.19 6.953l-5.048 2.571-1.429-2.095c-1.143-1.524-2.19-1.905-3.905-1.429-4.095.953-4.762-.666-1.238-2.952 2.476-1.714 3.238-2.952 3.238-5.238 0-2.572-.38-2.953-3.238-3.238-2.666-.286-3.428.095-4.38 2.285-.858 1.81-.858 2.858-.191 3.62.762.761 1.238.285 1.714-1.62q.714-2.571 2.286-2.285c2.19.38 2.762 2.38 1.143 3.714-7.334 6-7.334 5.905-6.096 7.238.762.762 3.143 1.143 6 .952 4.19-.285 4.572-.095 3.334 1.334-1.81 2.19-5.334 3.714-66 28.285-12.953 5.239-45.62 17.715-79.524 30.381-8.857 3.334-22.952 8.667-31.524 11.905-27.81 10.572-42.857 16-43.904 16s-1.62-4.571-1.334-9.905c.381-5.428-4.571-8.19-8.19-4.476-1.905 1.81-2.095 5.048-.286 5.62.952.38.952.761-.095 2-.762.952-1.143 2.856-1.048 4.475.286 2.19.953 2.858 3.143 3.238l2.857.572-2.857 1.619c-1.524.857-6.095 2.571-10.095 3.714-10.762 2.953-12.19 4.19-12.19 9.905-.191 24.762.19 47.524 1.047 55.714.476 5.524 1.62 17.429 2.476 26.476.857 9.143 1.905 19.048 2.476 22 .572 3.048 1.905 11.048 3.048 17.81 1.048 6.762 3.81 19.143 6 27.714 2.19 8.476 4 16.19 4 17.048 0 1.333-.762 1.619-3.524 1.333-1.905-.286-3.714 0-4 .572-.38.666-.762.666-1.143-.191-.571-1.333-3.428-1.714-3.333-.476 0 .38-2.952.571-6.571.38-3.524-.19-6.477-.094-6.477.287 0 .666 3.143 8.857 3.715 9.523.19.19 1.047-.571 1.904-1.81.762-1.142 2.286-2.19 3.334-2.19 1.333 0 1.714-.476 1.333-2-.667-2.571 1.429-2.571 4.762.096 2.381 1.904 2.381 2 .476 3.428-3.143 2.476-.666 3.429 6.762 2.667 4.381-.476 7.048-.381 7.524.285.476.572 2.095 4.191 3.619 8.096 3.714 9.047 12.38 23.904 18.19 31.238 13.905 17.333 34.953 34.285 58.667 47.047 25.143 13.62 80.38 34.096 138.19 51.334 20.667 6.19 40.096 12.285 75.524 23.81 20.095 6.57 42.571 13.809 50 16.094 21.905 6.667 93.619 32 126.476 44.572 9.333 3.619 19.238 7.333 22 8.38 12.857 4.953 70.952 28.191 78.571 31.524 23.048 10 30.286 14.096 37.524 21.143 6.572 6.286 7.429 7.62 10.381 15.81 4.286 11.81 4.857 18.666 5.048 57.905 0 17.619.285 33.714.666 35.619l.477 3.523 13.81.096c12.38.19 13.809 0 13.523-1.429-.571-2.762-1.238-51.619-.762-52.952.286-.857 3.905-1.238 13.143-1.238h12.667l-.286-12.953c-.19-7.238-.667-13.047-1.143-13.047s-.571 3.81-.381 8.571c.286 4.667.19 10.095-.19 12l-.572 3.429h-22.667l-.571-3.524c-.38-1.905-.667-15.62-.667-30.476l-.095-26.953 9.238-.285 9.334-.381-9.239-.19-9.238-.191v-9.048c0-5.524-.476-8.952-1.047-8.952-.667 0-1.048 3.238-.953 8.571.19 5.905-.19 8.857-1.047 9.429-.857.571-.762.857.38 1.333 1.43.571 1.525 6.667 1.334 58.38l-.19 57.81-11.715.286-11.714.286-.571-3.334c-.286-1.81-.572-28.095-.762-58.476l-.286-55.333 9.524-.19 9.524-.19-9.524-.477-9.524-.572v-45.999l12.286-.286 12.285-.286v12.286c.096 6.762.477 13.143.953 14.285.476 1.143.666-2.57.476-9.523-.19-6.286-.095-12.762.19-14.286l.572-2.762H698.9l11.81.095.095 23.429.095 23.524-2.286.095h-2.19l2.286.952c2.19.857 2.285 1.238 2.285 17.143 0 9.905.381 16.857 1.048 17.81.762 1.047.857-3.048.476-14.477-.286-8.857-.286-16.476.19-17.142.382-.572 3.905-2.096 7.715-3.334 3.905-1.333 13.524-4.762 21.524-7.81 36.952-13.809 79.904-28.666 166-57.428 44.476-14.952 110.57-36 140-44.762 9.618-2.857 21.523-6.571 26.38-8.19 4.857-1.524 16-4.857 24.762-7.333 17.143-4.858 62.286-19.62 72.857-23.81 3.62-1.428 13.334-5.048 21.62-8.095 54.856-19.81 95.237-43.143 122.19-70.572 12.952-13.238 21.428-26.476 28.666-45.047l2.096-5.524 7.523-.286c4.096-.19 7.715-.571 8.096-.952.38-.476-2.858-.571-7.239-.38-6.19.285-7.904.094-7.904-1.049 0-3.047 1.81-4.095 7.619-4.19 6-.095 8.762-1.048 7.81-2.571-.286-.477-.096-1.239.475-1.524.572-.381 1.048-.19 1.048.38 0 .572.476 1.048 1.048 1.048.571.096.952-.952.762-2.19-.286-2.19-.762-2.286-8.096-2.095-5.714.19-7.523-.096-7.047-.953.762-1.143 3.428-17.905 5.428-33.714.572-4.667 1.334-9.143 1.524-10 .286-.857.667-4.857.857-8.952.381-8.858 1.524-24.286 2.096-28.572.761-5.905 1.714-86.095 1.047-90.476-1.333-9.047-19.143-28.857-33.524-37.333-5.238-3.048-3.428-.953 2.667 3.238l5.81 3.905-.762 7.81c-.381 4.38-1.524 18.19-2.381 30.856-.762 12.572-1.715 23.143-2 23.429-.286.286-13.334.667-29.048.857-26.952.286-28.476.19-28-1.524.476-1.524 1.524-8.666 4.095-29.714.286-2.19 1.429-14.571 2.572-27.524 2.857-34.476 3.047-36 3.81-36 .38 0 5.904 2.953 12.19 6.572s12.38 7.047 13.428 7.523l2 1.048-2-1.714c-5.428-4.381-39.238-22.953-58.952-32.476-22.952-10.953-64.476-27.81-60.095-24.477 1.047.858 2.38 1.524 2.857 1.524.762 0 9.429 3.524 31.238 12.762 6 2.572 21.238 9.81 33.905 16l22.857 11.333-.667 10.19c-1.619 26.382-7.238 80.096-8.762 84.382l-.762 2.19h-60.095l-60.19-.095.666-3.238c.286-1.81 1.715-6.095 3.048-9.524 2.381-5.81 9.81-30.286 14.952-49.047 1.239-4.667 3.524-15.239 4.953-23.429 1.524-8.286 3.143-16.857 3.619-19.048.571-2.19 2.095-10.762 3.333-18.952 1.334-8.286 2.667-15.714 3.048-16.667.476-1.142 0-1.714-1.62-2.19-1.237-.286-8.38-2.857-15.809-5.714-21.047-8.096-64.952-22.286-86.476-28-41.333-10.857-94-23.334-135.524-31.905a1957 1957 0 0 1-21.523-4.476c-41.905-8.762-79.143-16.096-94-18.476-3.238-.572-18-3.048-32.667-5.524C769.472 12.7 715.282 4.7 698.425 2.89c-5.429-.666-11.524-1.523-13.333-2l-3.334-.857zm16.19-43.428c4.382.571 8.191 1.238 8.477 1.523.286.286.572 7.524.762 16.096.095 8.476.381 15.714.667 16 1.047 1.047 3.047-13.143 2.095-14.762-.381-.572-.857-4.667-1.143-9.143l-.476-8.095 4.857.571c12.19 1.524 50.286 6.857 54.762 7.62 2.762.57 10 1.713 16 2.57 6.095.953 18.666 3.048 28 4.667 9.333 1.62 23.524 4.095 31.524 5.429 17.333 2.952 29.047 5.333 30.19 6 .476.285.857 24.095.762 52.952 0 40.095-.286 52.476-1.238 52.857-.857.286-.762.762.286 1.524 1.333.857 1.523 8.667 1.81 56.952l.38 56-9.143.286c-5.047.19-9.81 0-10.666-.476-.762-.381-1.334-.381-1.334.095s-1.619.857-3.524.952c-1.904 0-3.238-.38-2.952-.857.286-.476.095-.857-.476-.857-.476 0-1.143.476-1.334 1.143-.285.762-1.142.667-2.952-.571-2.095-1.334-2.857-1.43-3.905-.381-1.714 1.523-6.285 2.285-5.428.761.38-.476.19-.952-.381-.952-.572 0-1.048.667-1.048 1.524 0 1.048 1.048 1.428 3.429 1.428 1.905 0 3.524-.38 3.524-.952 0-.571.666-1.048 1.523-1.048.762 0 1.524.477 1.524 1.048 0 .667 5.334.952 14.19.952h18.763v44.191l-3.715-.19c-11.619-.477-63.333.19-62.857.857.19.476 15.334.666 33.429.476l32.952-.381.381 5.714c.286 5.333.095 6-4.095 11.81-10.476 14.38-26.572 33.238-53.048 61.904l-13.524 14.667h-94.476v-45.048l32.572.096c18 0 32.476-.286 32.095-.667-.286-.286-14.952-.571-32.667-.571l-32-.096-.095-13.143c0-7.142-.286-17.714-.571-23.333l-.381-10.286h23.904c13.239 0 24.19-.38 24.477-.857.285-.476-10.286-.762-23.62-.666l-24.285.095-.286-22.381-.19-22.286 15.714.381c8.667.286 16.667.857 17.714 1.334 1.238.476 2.095.38 2.286-.381.286-.858.857-.858 2.286 0 1.428.952 2.19.857 3.428-.096 1.238-1.047 2.095-1.047 4.572.19 2.476 1.334 3.047 1.334 3.047.191s3.524-1.333 19.905-1.238c11.048.095 20.286-.19 20.667-.571.952-.857 2.857-.857-46.096-1.048l-43.047-.095-.095-40c-.286-141.429-.477-172.476-1.334-173.048-.571-.285-.666 41.429-.38 106.477l.666 107.047h-24.19l-.096-63.238c0-34.762-.285-71.333-.476-81.238-.38-16.38-.952-103.143-.666-106.38.095-1.048.952-1.239 3.333-.763 1.81.381 6.857 1.143 11.238 1.715m197.144 32.38c9.238 1.81 21.619 4.572 27.428 6 5.714 1.334 11.714 2.477 13.238 2.477s6.857 1.143 12 2.476c5.048 1.333 14.19 3.428 20.19 4.571 18.858 3.62 37.43 7.62 38.096 8.19.762.858-1.429 7.81-8.476 26.477-15.238 40.38-24.953 62.952-40.19 93.619-9.715 19.428-37.239 69.333-39.81 71.905-.476.476-35.334 1.333-39.81.952-.952-.095-1.238-17.333-1.238-78.19 0-42.953-.286-78.477-.571-79.048-.381-.476-.095-.952.476-.952s1.048-.477 1.048-1.048-.381-.857-.762-.571c-.381.285-.762-13.239-.857-29.905 0-22.572.285-30.476 1.142-30.476.572 0 8.762 1.619 18.096 3.523m171.142 38.667c1.048.286 1.429 9.143 1.905 42.857.286 23.334.667 42.667.952 42.953.19.19.477-12.858.572-29.048s.19-32.286.19-35.905c.096-3.619-.285-9.524-.762-13.238-.666-5.619-.571-6.762.572-6.762 5.047 0 103.81 31.238 111.047 35.143 1.81.952 2 1.714 1.429 6.857-.381 3.238-1.714 11.334-3.048 18.19-1.333 6.763-3.143 16.382-4.095 21.334-2.286 12.095-8.952 40.476-11.428 48.476-1.143 3.62-2.762 9.333-3.62 12.857-1.714 6.762-9.142 29.524-10.571 32.286-.857 1.524-3.333 1.714-24.952 1.524-13.143-.095-24 .19-24 .571s10.857.762 24.19.762c18.857 0 24 .286 23.62 1.238-4.858 12.19-9.525 23.238-13.144 31.714-2.571 5.81-4.571 10.667-4.571 10.762 0 .19-13.524.286-30 .286h-29.905l-.666-4.762c-1.048-7.81-1.239-8-1.334-1.428l-.095 6.38-13.81-.19c-25.238-.38-37.238 0-37.238.952 0 .667 9.048.953 25.524.762l25.524-.19v13.238c0 9.905-.381 13.238-1.333 13.333q-1.43 0 0 .572c.952.38 1.333 3.428 1.333 10.38v9.905h-35.714c-19.62 0-35.429.286-35.143.572.38.38 23.81.571 52.19.571l51.715-.095-1.81 2.762c-5.143 8.095-25.714 35.524-30.38 40.571-1.62 1.81-3.239 1.905-21.81 1.524-16-.38-20.096-.19-20.096.857 0 .953 3.905 1.143 19.048.762 13.619-.38 18.952-.286 18.952.572 0 1.619-25.523 26.666-38.285 37.714l-10.762 9.238-17.238.19-17.238.19 15.904.572 15.81.572-8.286 6.476c-12.762 9.905-14.762 11.333-36.285 25.714-13.62 8.953-20.953 13.333-22.762 13.333-1.905 0-2.667.381-2.286 1.239.286.761-1.714 2.476-4.762 4.38-34.762 20.286-59.333 34.286-60.095 34.286-.286 0-.762-1.619-.953-3.714l-.38-3.714-.191 4.19c-.19 4.095-.38 4.286-6.952 8.19l-6.762 4-73.238.096c-42.095.095-73.238.476-73.238 1.047 0 .477 33.523.667 80 .286l80-.476-.286 22.857-.19 22.762-49.239.286c-27.143.19-49.238-.096-49.238-.477 0-.476 11.334-6.571 25.238-13.714 13.905-7.047 31.524-16.286 39.238-20.571 7.715-4.19 14.858-8 15.905-8.381 1.048-.381 1.62-.953 1.238-1.238-.285-.381-8.19 3.428-17.428 8.38-22.572 12.096-61.62 32.286-67.334 34.763-4.38 1.81-6.476 2-34.285 1.714l-29.62-.286v-94l13.62.095c7.428.096 13.81-.095 14.095-.476.38-.285-5.81-.571-13.62-.571h-14.19l.286-7.714.286-7.715 15.143-11.524c8.285-6.38 17.428-13.428 20.38-15.809 2.858-2.286 5.524-4 5.905-3.81 1.429.858 30.096.953 29.81.096-.095-.476-6.952-.762-15.238-.667l-14.953.19 4.096-3.809c2.285-2 11.619-10.476 20.857-18.762 9.238-8.19 18.666-17.143 21.047-19.81l4.19-4.857 36.668-.285 36.666-.286.19 15.143.191 15.143.572-15.048.476-14.952 15.524-.19c9.904-.096 15.619-.572 15.809-1.239.19-.666-.38-.857-1.333-.476-.953.38-2.096.095-2.572-.762-.476-.762-.857-.857-.857-.38 0 .666-5.333 1.142-13.524 1.332l-13.523.286v-46.095l26 .286c14.285.095 26-.096 26-.572 0-.38-12-.762-26.667-.762H876.71l.667-10.952c.572-7.714.381-11.048-.38-11.048-.667 0-1.048 3.81-1.048 11.048v10.952h-26.191l2.381-2.762c1.238-1.619 6.381-8 11.333-14.285 4.953-6.19 10.096-12.476 11.524-13.905 1.334-1.524 3.048-3.81 3.81-5.143.666-1.428 2.952-4.38 4.952-6.666l3.714-4.191 49.048-.095c26.952 0 49.81.286 50.762.666 1.143.477 1.714.096 1.714-.952 0-1.524-4.19-1.619-49.619-1.333-27.238.19-49.714 0-50-.381-.286-.476 3.143-5.714 7.524-11.81 4.476-6 10.952-15.428 14.38-21.047l6.382-10.096h48.19c26.667 0 48.095-.38 48.095-.857 0-1.143-4.38-2.285-4.761-1.238-.191.381-2.762.476-5.81.095-5.143-.571-73.619-.38-79.81.286-1.618.095-3.047-.19-3.333-.762-.19-.571 3.143-6.857 7.334-14s10-17.047 12.952-22.095c5.714-9.81 24.095-45.619 28.857-56.38 1.62-3.62 4.19-9.43 5.81-13.048 9.619-21.239 22.285-53.62 28.857-73.238 2.095-6.572 4.095-12.19 4.38-12.572.286-.667 51.62 11.714 58.286 14M267.378 138.51c-3.143 6.476-8.762 19.524-12.572 28.857-3.81 9.334-6.666 15.715-6.476 14 .286-1.619.762-5.047 1.143-7.523.286-2.381 2.19-12.953 4.286-23.334l3.619-18.857 5.047-2.476c6-2.952 9.905-4.19 10.286-3.333.19.38-2.286 6.095-5.333 12.666m-12.381-3.143c0 1.334-.762 5.429-1.62 9.238-.856 3.715-2.856 14.477-4.475 23.81-3.62 21.619-3.524 21.143-11.334 45.619-3.619 11.333-7.524 24.571-8.666 29.524-1.143 4.857-2.286 9.524-2.477 10.38-.38 1.334-4 1.525-27.142 1.62l-26.572.19.476-17.714c.381-9.714 1.048-20.095 1.62-23.143.57-3.047 1.714-10.857 2.666-17.524.857-6.571 2.857-17.333 4.286-23.904l2.762-12 22.476-9.143a7442 7442 0 0 0 34.476-14.19c6.571-2.763 12.286-5.048 12.762-5.144.38-.095.762 1.048.762 2.381M182.52 164.13c-5.715 20.476-9.715 48.19-10.286 71.524l-.571 20.19-3.048.096-3.143.095 3.143.952c3.333.953 4.286 2.953 4.286 9.143.095 4.857 2.571 20.572 4.571 28.095.762 3.143 1.524 6.19 1.524 6.762 0 .476-2.286.857-5.143.857-3.143 0-4.762.381-4.38 1.048.38.667 2.094.762 4 .476 4.951-.952 7.237.19 8 3.81 2 9.333 11.237 25.143 20.38 34.952 3.333 3.62 6.095 6.762 6.095 7.143 0 .286-15.905.571-35.333.571h-35.333l-1.334-2.762c-2.952-6.38-5.238-14.571-7.524-27.047-1.333-7.238-2.476-14.095-2.476-15.048 0-1.714 1.048-1.81 12.762-1.714 7.048.095 13.524-.19 14.381-.571.953-.477 2-.381 2.286 0 .667 1.238 12.571 1.238 12.571.095 0-1.048-1.714-1.143-25.524-1.238l-16.952-.19-1.143-11.525c-.666-6.285-1.524-16.095-1.904-21.714-.762-10-.667-10.286 1.428-10.286 1.143 0 2.095-.38 2.095-.952 0-.571-.952-1.048-2.19-1.048h-2.095l.762-25.714c.38-14.19 1.047-30.19 1.428-35.714l.572-10 3.523-1.62c1.905-.951 7.524-3.142 12.476-4.951 4.953-1.81 16.19-6.096 25.048-9.524 8.762-3.429 16.381-6.286 16.857-6.286.476-.095.572.857.19 2.095m-59.905 27.524c-.19 3.714-1.048 19.62-1.714 35.429l-1.334 28.666-3.047.476c-1.715.19-3.524.096-4.095-.38-1.334-1.048-5.43-.096-5.43 1.238 0 .571 2.858.857 6.953.666l7.048-.38v7.809c0 4.38.38 12 .952 17.047.477 5.048 1.143 11.524 1.334 14.381l.38 5.238H112.33c-8.38 0-11.428-.285-11.428-1.238-.096-.952-.19-.952-.572 0-.38.857-2.857 1.238-7.428 1.238-4 0-6.953.477-6.953 1.048 0 .667 7.143.952 19.524.952h19.524v3.334c0 4.762 4.38 26 7.238 34.952l2.476 7.81-24.571-.286-24.667-.286-1.714-8c-1.333-6.286-5.81-34.571-5.81-36.952 0-.286 1.62-.572 3.524-.572 1.905 0 3.524-.285 3.524-.761s-1.429-.858-3.048-.858-3.238-.285-3.619-.666c-.762-.762-1.904-13.429-2.857-31.143l-.762-13.048 15.238.286c10.857.095 15.048-.095 14.762-.952-.285-.762-4.857-1.048-14.762-.953-10.762.19-14.571-.095-15.142-1.047-.477-.762-.858-12.667-.858-26.572 0-23.238.19-25.333 1.715-25.905 3.047-.952 20.38-7.523 32.762-12.476 6.666-2.666 12.666-4.762 13.333-4.762 1.047-.095 1.238 1.429.857 6.667m1220.951 4.857c2.286 1.81 6.762 7.238 10 12l5.905 8.572.286 17.904.285 17.905h-27.238l.476-2.762c1.239-6 3.524-38.952 3.62-51.524.095-7.619-.096-7.523 6.666-2.095M37.95 203.367c-1.714 2.096-3.428.381-2.476-2.476.572-2 .857-2.095 2.286-.667 1.238 1.334 1.333 1.81.19 3.143m35.048 26.476v26H56.045l-16.858-.095-.666-3.047c-.286-1.715-.572-10.572-.572-19.715v-16.762l7.238-2.571c4-1.429 11.334-4.19 16.286-6.095 4.953-2 9.524-3.524 10.19-3.62 1.048 0 1.334 5.81 1.334 25.905m-34.19-21.238c-.381 3.143-3.524 4.381-4.477 1.905-.952-2.476.286-4.666 2.667-4.666 1.714 0 2 .57 1.81 2.761m-2 34.858.19 12.952-10.286-.286c-5.619-.19-10.857-.571-11.523-.762-.953-.285-1.239-4.285-1.239-15.428v-14.953l10.762-3.333 10.762-3.333.572 6c.38 3.333.762 11.904.762 19.143m1319.998 11.047 3.143.667v15.714c0 8.667-.286 18.476-.667 21.81l-.571 6.19h-15.429c-14.476 0-15.333-.095-15.333-1.905 0-1.047.857-9.047 2-17.81 1.143-8.666 2.19-17.523 2.476-19.713s1.048-4.286 1.81-4.762c1.428-.953 18.095-1.048 22.571-.19m-443.523 5.714c-5.524 8.762-19.429 29.334-23.048 34.19-3.524 4.572-4.19 5.048-8.571 5.239l-4.667.38.095-22.094.096-22 18.666-.286c10.19-.095 18.953-.095 19.334 0 .38.19-.477 2.19-1.905 4.571m358.57-1.619c-.38 2.096-2.19 11.238-4 20.286-1.713 9.048-3.618 17.333-4.094 18.286-.762 1.524-2.667 1.714-14.572 1.905l-13.714.285 13.714.286c7.905.19 13.81.667 13.81 1.238 0 3.81-10.953 39.048-13.81 44.476-.952 1.714-1.81 3.81-1.904 4.857-.572 3.143-11.905 25.715-17.334 34.381l-5.143 8.286h-16.666c-9.143.095-28 .095-41.905 0-16.762 0-25.333.286-25.81 1.048-.38.666.667 1.047 3.143.952 26-.381 78.381.095 78.381.667 0 1.523-11.714 16.476-19.524 25.047-9.047 9.81-24.285 23.524-25.523 22.762s-46.857-.857-47.62-.095c-.38.286 10.286.571 23.62.571l24.285.096-7.333 6c-13.429 10.857-49.333 34.57-57.428 37.904-3.239 1.334-7.239 1.524-22.667 1.238l-18.667-.285.095-22.477.096-22.476 11.523-.19 11.62-.19-11.715-.286-11.714-.381-.286-16.19-.19-16.191-.286 16.19-.38 16.286-25.144.19-25.238.286 25.238.286 25.238.286-.19 22.57-.286 22.477-48.476-.095c-26.667 0-48.19.19-47.81.571.382.381 21.048.572 46 .572 24.858-.096 46.762.19 48.572.476l3.238.571-.286 9.62-.285 9.523-12 5.429c-20.572 9.238-46.858 20.476-50.477 21.428-1.904.572-7.238 2.762-11.81 4.857-4.475 2.19-8.475 3.905-8.761 3.905s-7.333 2.762-15.714 6.19c-31.143 12.477-90.381 34.858-92.381 34.858-.19 0-.286-12.572-.286-28 0-19.334.286-28 1.048-28 .571 0 5.143-2.381 10.19-5.429 5.048-2.952 17.334-10 27.238-15.619s21.048-12.19 24.762-14.571 7.62-4.381 8.762-4.381c1.048 0 2-.381 2-.953 0-.476.952-.666 2.19-.38 1.81.38 2 .285.762-.572-1.333-.952-1.238-1.238.286-2.19 7.524-4.381 39.048-26.096 46.762-32.096 5.238-4.19 10.857-8.38 12.476-9.428s4.572-3.238 6.476-4.953c13.62-12 27.048-24.761 36.286-34.285 5.905-6.095 10.952-11.143 11.238-11.143s.572 3.524.667 7.714l.19 7.81.381-7.715.286-7.714 25.524-.286c14.095-.19 26.285.096 27.238.572 1.047.667 1.714.571 2-.19.19-.762.952-.858 2.095-.191 1.048.476 2.095.667 2.476.286s2.476-.572 4.667-.381c2.571.19 4-.19 4-.953 0-.952-7.62-1.047-33.048-.476-18.095.381-33.428.381-34 0-.571-.286 1.715-4 5.238-8.571 22.381-28.476 36.381-49.81 49.048-74.667l5.238-10.19h39.81c22 0 40.19-.19 40.476-.477.476-.476-44.476-.857-69.048-.571-11.143.095-11.047.286-7.143-8 1.429-3.048 4.762-11.048 7.524-17.905s5.62-13.714 6.476-15.238l1.429-2.857h121.714zm59.144-.285c0 3.523-3.62 32.762-4.667 37.81l-.571 2.761h-29.905c-27.81 0-29.905-.095-29.905-1.714 0-.953 1.62-8.953 3.524-17.81 1.905-8.762 3.429-16.762 3.429-17.619 0-.952.476-2.857 1.047-4.285l.953-2.572h56.095zm-622 18.476c0 11.524-.285 21.619-.666 22.476-.477 1.333-2.477 1.619-11.429 1.619-9.428 0-10.857-.19-11.333-1.714-.381-.953-.572-8.762-.572-17.334.096-8.476 0-15.904-.095-16.476-.286-1.619.19-7.904.667-8.762.286-.38 5.619-.762 11.905-.762h11.523zM36.711 258.415c.381.286 3.143 37.81 3.238 42.286v2.38l-11.047-.476c-6-.19-11.238-.666-11.429-.857-1.714-1.714-4.571-41.333-3.238-43.524.476-.761 21.714-.571 22.476.19m36-.095c.667.666 3.429 40.095 2.953 42.476-.19 1.143-3.238 1.428-16.667 1.333-16.38-.095-16.476-.095-17.238-2.38-.667-2.382-2.857-31.144-2.857-38.382v-4l16.666.19c9.143.096 16.858.477 17.143.763m151.524 10c-.857 12.285-.857 21.523.095 28.571l.667 4.667-22 .19-22 .095-1.905-6.666c-2.667-8.953-5.905-32.19-5.238-37.62.095-.475 11.62-.666 25.619-.57l25.524.285zm905.713 32.19c0 2.286-24 44.286-26.476 46.381-.857.667-7.143.952-17.143.762l-15.904-.286-.286-22.476c-.095-12.38 0-23.048.286-23.714.38-1.048 7.047-1.334 30-1.334 16.19 0 29.523.286 29.523.667m194.952 1.238c0 2.381-2 12.762-7.904 39.81-.857 3.523-1.81 5.428-3.334 6.095-1.904.952-2 1.143-.38 1.143 1.333.095 1.714.571 1.238 1.714-.286.857-1.524 5.143-2.572 9.524-2.762 10.571-9.619 29.905-11.238 31.428-1.429 1.524-11.143 1.81-50.38 1.524l-24.191-.095 4.476-6.762c2.476-3.714 7.905-13.714 12.095-22.286 4.095-8.476 7.905-15.619 8.381-15.81.476-.19.667-.666.381-1.142s1.619-7.524 4.38-15.714c2.668-8.096 5.906-18.476 7.144-23.048l2.19-8.286 29.905.096c27.048.19 29.81.285 29.81 1.81m30.381-1.238 3.81.667-.571 9.143c-1.048 14.666-2.572 31.904-3.048 34.19-.286 1.143-1.333 2.286-2.286 2.476-.952.286-9.428.19-18.857-.095l-17.048-.476 1.239-6c.761-3.334 2.666-12.762 4.38-21.048 1.715-8.19 3.334-16 3.62-17.238.476-2.19.857-2.19 12.666-2.19 6.762 0 14 .285 16.095.571m-473.332 4.857c-4.286 6.286-4.953 6.381-4.953.572v-5.048h8.095zm-173.62-2.38c.191.19.572 10.57.763 22.856l.38 22.572h-24l.096-15.238c.095-8.762-.286-15.334-.857-15.334-.477 0-.572-.476-.19-1.047.38-.572.57-3.81.57-7.143-.095-3.333.191-6.476.477-6.952.571-.858 22-.572 22.762.285M228.33 313.08c3.62 11.143 9.524 20.477 18.667 29.429 3.238 3.238 6 6.19 6 6.571 0 .477-4.667.762-10.19.762-5.62 0-10 .286-9.715.477.19.285 5.238.571 11.048.666l10.666.095 9.81 6.096c5.428 3.333 14.476 8.19 20.095 10.952l10.286 4.762v7.524c0 4.095-.381 7.428-.762 7.428s-6.572-1.81-13.714-4.095c-12.667-3.905-31.905-11.524-42.096-16.571-7.523-3.81-23.428-14.476-22.857-15.429.286-.476 4.096-.857 8.476-.857 5.62 0 7.81-.286 7.334-1.143-.476-.762-3.524-.857-9.81-.38l-9.143.666-5.619-5.048c-3.142-2.857-7.81-7.905-10.38-11.333-4.953-6.572-12.762-21.905-13.905-27.524l-.762-3.238 21.714.19 21.714.286zm-186.476.572c.667 5.333 2.095 15.143 3.238 21.714 1.048 6.667 2.095 12.667 2.19 13.524.096 1.143-1.809 1.333-11.809 1.143-6.666-.19-12.38-.572-12.762-.953-.762-.857-4.571-26.857-5.428-37.428l-.667-7.81h24zm36 .476c.762 5.62 2.381 15.905 3.714 22.762s2.381 12.571 2.381 12.762c0 .095-7.81.19-17.428.19H49.092l-.952-4.666c-1.905-8.857-3.143-16.762-4.19-27.334-.572-5.714-1.334-11.238-1.62-12.19-.476-1.62.762-1.81 16.857-1.81h17.334zm1266.38 34.762h10.762l-.667 6.762c-.952 10.762-4.19 32.571-5.143 35.047l-.857 2.381-22.952-.095c-12.572-.095-22.953-.286-23.048-.38-.095-.096 1.429-4 3.333-8.763 1.81-4.666 4.762-13.428 6.381-19.428 1.62-6.095 3.429-12.286 4.096-13.905l1.142-2.762 8.096.476c4.476.381 12.952.572 18.857.667M876.71 372.129l.286 22.762-34.571-.095c-18.953 0-34.476-.286-34.476-.762 0-.381 6.285-7.334 13.904-15.429 7.715-8.095 16.762-18.095 20.286-22.285l6.286-7.524 14 .285 14 .286zm-167.047.476.19 22.286h-23.809l-.286-19.714c-.19-10.857-.19-21.048 0-22.572l.286-2.762 11.714.286 11.715.286zm-492.19-16.666c9.62 7.142 18.381 12.19 29.238 16.952 10.476 4.667 31.81 12.286 40.762 14.571 8.095 2.19 8.571 2.667 7.524 8.381 0 .286-27.429.667-60.857.762l-60.762.286-10.19-10.286c-11.905-11.905-15.81-16.952-21.334-27.143l-4-7.523 8.762-.286a6415 6415 0 0 1 36.38-.572l27.43-.285zm-168.952-1.334c.286 1.524.952 4.095 1.428 5.81.858 2.666.953 2.571.477-1.143-.286-2.286-.762-4.952-1.048-5.81-.571-1.428 1.333-1.523 17.238-1.523h17.81l2.476 10.19c2 8.476 4.666 16.762 10.666 33.714.381 1.334-2 1.524-17.714 1.524h-18.19l-2-5.524c-1.048-2.952-3.143-9.714-4.762-14.952-1.524-5.238-2.857-8.857-2.857-8-.096 1.714 4.762 19.714 5.904 22 .381.857 1.048 2.762 1.334 4.19l.666 2.762-13.047-.19-13.048-.286-1.524-5.524c-.857-2.952-1.904-6.571-2.38-8-.953-2.857-5.524-22.571-6.477-28.19l-.571-3.81h25.047zm89.524 1.524c4.761 9.238 14.761 22.762 23.428 31.524l9.143 9.238H140.52c-16.572.095-32.381.19-35.334.286l-5.238.285-4.095-10.571c-3.238-8.286-9.905-31.524-9.905-34.381 0-.38 11.238-.667 24.953-.667h25.047zm176 23.62c7.904 2.761 20.952 7.047 29.047 9.618 21.333 6.762 21.333 7.048-.857 6.953-19.143-.096-22.381-.572-37.048-4.953l-8.19-2.571v-7.524c0-6.095.19-7.524 1.333-7.048.762.286 7.905 2.762 15.714 5.524m-1.81 16.094c.952 1.048.286 1.143-3.714.667-2.667-.381-6.381-.667-8.19-.667-3.049 0-3.334-.19-3.334-2.857v-2.857l6.952 2.19c3.905 1.239 7.62 2.858 8.286 3.524m986.76-.285c0 1.81-13.904 26.476-19.142 34.095-7.81 11.143-10.667 14.19-12.762 13.524-1.143-.286-1.238-.19-.38.38.856.667-.668 2.762-5.525 7.524-8.476 8.286-19.524 16.477-37.524 28.19l-14.19 9.144-46.286.285c-25.428.096-46.19-.095-46.19-.571 0-.381 2.571-2.286 5.714-4.19 13.334-8 37.524-24.477 47.429-32.381l10.666-8.572 5.81.572c4.571.38 5.428.19 4.095-.667-1.047-.572-2.571-.857-3.524-.572s-2.285.19-2.952-.285c-.952-.572 1.143-3.143 6.857-8.667 12.095-11.714 20-20.476 27.238-30.286l6.476-8.666 37.048.285c20.38.096 37.143.572 37.143.858m48.953.19c0 .381-1.143 4.572-2.476 9.238-2.857 9.81-9.333 24.095-14.286 31.62l-3.524 5.237-20.571.286-20.667.19 19.524.572c10.762.286 19.524.762 19.524 1.143 0 1.428-11.238 14.19-16.762 18.952-10.952 9.524-19.333 16.19-26.762 21.238-6.38 4.286-8.19 5.048-11.905 5.048-3.238-.095-4 .095-2.761.762.952.571 2.19.666 2.857.285.666-.476.857-.285.38.477-3.047 4.857-52.38 27.619-85.047 39.142-6.095 2.096-16 5.715-22 7.905-19.048 7.143-36.19 12.667-62.476 20.381-14.095 4.19-26.381 7.81-27.333 8.19-1.62.667-1.81 0-1.524-9.142l.286-9.81 10.571-4c10.095-3.81 10.857-3.905 22.476-3.905 9.81 0 10.667-.095 4.762-.571-7.905-.667-9.81-1.524-6.19-2.952 24.095-9.238 66.285-27.429 89.428-38.667 14.381-6.952 16.571-7.714 22-7.714 5.62-.095 5.62-.095 1.143-.476l-4.857-.381 17.333-11.524c18.762-12.476 24.476-16.953 35.524-27.714 3.905-3.81 7.619-6.572 8.19-6.19.667.38.953.094.667-.668-.286-.761 3.048-6.38 7.429-12.571 4.38-6.19 10.476-16.286 13.619-22.476s6-11.714 6.476-12.286c.952-1.143 46.952-.857 46.952.381m10.952 1.048c1.429.095 2.096.476 1.524.952-1.333 1.238-8.952 2.095-10.476 1.143-2.19-1.333 0-2.952 3.333-2.571 1.715.285 4.286.476 5.62.476m-648.951 12.38c0 6.667.285 17.239.666 23.43l.667 11.237H685.95V421.08c0-12.571.285-23.142.666-23.523s5.81-.667 12-.667h11.334zm91.047-11.428c0 1.238-20.476 20.857-36 34.381l-13.428 11.714h-39.62v-10.666c0-5.905-.285-16.477-.666-23.524l-.667-12.762h45.143c24.857 0 45.238.38 45.238.857m-505.142 2.286c.952 2.286.952 2.286 1.048.19 0-2 .476-2.095 13.238-2.095 11.142-.095 14.952.381 24.952 2.857 10.857 2.667 25.238 5.81 48.857 10.762 26.857 5.714 81.524 14.952 82.571 13.905.286-.286-3.047-1.048-7.333-1.714-44.19-6.953-120-22.477-122.666-25.048-1.715-1.714 33.047-1.238 38.952.571 6.952 2.096 48.952 12.762 60.476 15.238 21.048 4.572 37.81 8.096 44 9.143 8.952 1.62 10 2 10 3.715 0 1.142-.667 1.428-2.762.952-5.714-1.238-18.38-2.857-18.857-2.381-.286.286 4.762 1.333 11.048 2.286l11.619 1.714v14.762h-194l-.286-19.238-.286-19.238-.285 20.285c-.19 18.953-.286 20.381-1.905 19.715-.953-.476-4.476-.953-7.81-1.143-16.762-1.238-60.19-15.714-78.952-26.476-11.905-6.857-29.524-18.19-29.524-19.143 0-.381 16.095-.857 35.715-.953 19.714-.19 46-.476 58.57-.666l22.763-.286zm-119.429.762c4.19 4 24.096 16.19 36 22.095 14.096 7.048 24.762 11.143 44.286 17.048 7.81 2.38 14.286 4.57 14.286 4.857 0 .285-8.19.476-18 .285-12.19-.285-18 0-18 .667s8 1.048 24.19 1.143c15.048 0 26.572.476 30.286 1.238l6 1.238.286 21.143.19 21.143-3.81.476c-5.333.762-12.38-.571-25.523-4.571-6.095-1.905-17.714-5.334-25.62-7.62-14.666-4.095-43.523-13.523-56.475-18.476-11.143-4.19-28.572-12.762-28-13.714.285-.476 7.524-.857 16-.857 10.095 0 15.333-.381 14.952-1.048-.762-1.143-32.38-.952-33.143.286-.666 1.048-8.666-3.238-17.333-9.333-9.429-6.667-25.429-22.477-30.857-30.572-2.286-3.333-3.905-6.285-3.714-6.476s16.476-.476 36.095-.667c34.857-.285 35.714-.285 37.904 1.715m-162.476.666c0 .858-.476 1.238-.952.953-.571-.381-1.048-1.048-1.048-1.62 0-.475.477-.952 1.048-.952.476 0 .952.762.952 1.62m16.762-.857c-.952.19-2.571.19-3.523 0-.953-.285-.191-.476 1.809-.476 1.905 0 2.667.19 1.714.476m31.429 2c7.143 17.143 14.286 28.762 23.143 38 2.19 2.381 3.81 4.476 3.619 4.667-.286.286-6.953.571-14.953.667l-14.38.285-2.858-3.428c-6.666-8-18.857-31.048-21.143-40.19l-.666-2.763h26.095zm44.38 6.572c6.286 9.619 14 16.952 29.905 28.952 4.381 3.333 8.381 6.38 8.858 6.762.38.38-11.334.667-26.19.571l-26.953-.095-2.667-2.476c-7.619-7.048-19.047-24.19-23.619-35.333-1.619-3.81-2.857-7.143-2.857-7.334s8.38-.285 18.667-.285l18.762.095zm-72.761-3.715c-.381.286-2.952.762-5.81.953-4.38.285-4.952.19-4-1.048.667-.857 2.572-1.524 4.096-1.524 1.619 0 2.952-.476 2.952-1.143 0-.761.571-.571 1.62.477.951.952 1.428 1.904 1.142 2.285m469.714 22.953c3.81.857 7.904 1.81 8.952 2.19 1.905.572 1.81.667-.476 1.334l-2.476.761 2.666.096c1.429.095 6 .762 10 1.619s8.858 1.81 10.858 2c16.761 1.81 23.714 2.762 31.428 4.095 10.095 1.714 16.571 3.333 16.571 4.38 0 .287 1.715.668 3.905.858 8.572.476 50.953 10.095 70.19 15.81 2.286.666 2.667 2.952 2.858 17.047l.095 12.286H633.95c-14.381 0-24 .38-24 .952s14.19.762 37.428.381l37.524-.571v24.095l.095 24h-12.571l-12.476.095V532.7c0-8.762-1.238-8.38-1.429.381l-.095 6.286-31.429.286c-30.095.285-31.619.19-34.19-1.715-16.952-12.571-52.762-28.38-92.667-41.142-4.476-1.429-6.476-2.667-7.047-4.19-.476-1.239-.857-12.096-.762-24.191l.095-22 18-.19c9.905-.096 29.714-.191 43.905-.286 14.286 0 25.714-.286 25.428-.572s-20.19-.571-44.19-.476h-43.62v-7.62c0-6.094.287-7.523 1.43-7.047.761.286 4.666.762 8.761 1.048 8.572.667 5.429-.762-4.095-1.905-4.476-.476-6.095-1.048-6.095-2.19 0-1.143.667-1.334 2.286-.858 1.238.286 5.333 1.334 9.238 2.096m17.714 4.095c-.667.286-1.81.286-2.476 0-.667-.19-.095-.476 1.238-.476s1.905.285 1.238.476m189.143 23.143c.285 5.905.571 16.285.571 22.952v12.286H685.95l.19-22.476c.19-26-1.524-23.143 13.905-23.429l9.619-.095zm34.095-6.476c-2.572 2.285-10.857 8.857-18.381 14.476l-13.62 10.285-.475-12.761c-.286-7.048-.381-13.62-.096-14.572.286-1.524 2-1.714 18.858-1.714h18.476zM490.9 468.987v23.142l-4.19-.667c-2.381-.285-6.476-1.238-9.238-2.095-23.62-6.857-45.334-12.38-75.524-19.333-10-2.381-38.571-8.381-60.476-12.762-4.381-.953-12.762-2.667-18.476-3.905-5.81-1.238-13.048-2.667-16-3.048-5.905-.666-9.048-1.904-9.048-3.428 0-.667 35.143-1.048 96.476-1.048H490.9zm-332.952-17.62c19.429 9.905 48 20.19 85.524 31.048 12.667 3.619 24.571 7.523 26.476 8.666s5.048 2 7.048 2c3.143-.095 17.047 3.143 19.428 4.667.572.286 1.715.571 2.477.667 3.428.285 79.142 22.19 107.523 31.047 6.667 2 15.62 4.762 20 6s8.857 2.572 9.905 2.953c1.333.571 1.714.476 1.238-.381-.762-1.143-3.429-2-40.571-13.143-11.334-3.429-22.381-6.762-24.572-7.524s-19.524-5.714-38.476-11.048c-18.952-5.238-34.857-9.81-35.238-10.095-.38-.286-.762-1.047-.762-1.81 0-1.047 1.905-1.523 7.714-1.809l7.81-.286-8.286-.19-8.19-.286v-21.047c0-19.524.095-21.048 1.714-20.477.952.19 11.143 2.286 22.571 4.572 25.715 5.047 57.334 11.619 62.381 12.952 2.096.476 7.429 1.715 11.81 2.572 15.238 3.047 50.38 11.714 65.714 16.095 9.429 2.667 12.667 5.238 5.714 4.571-2.857-.285-3.143-.19-2.19 1.048 1.619 1.905 4.667 1.619 7.143-.667 1.81-1.619 2.19-1.619 4.762-.285 1.523.857 5.428 2.095 8.571 2.666l5.81 1.238.095 14.096c.286 23.523.286 29.619-.286 30.19-.762.762-46.571.762-47.81.095-.57-.38-1.047-.285-1.047.095 0 .477 3.048 1.81 6.762 2.953 9.238 2.952 37.143 12.857 40.476 14.476 2.857 1.238 3.81 3.81 1.524 4q-1.572 0 0 .571c.857.381 1.238 4 1.238 13.429v12.857l-11.238.286-11.238.19 11.238.286 11.238.381v10.667l-9.238-3.715c-12.476-5.047-14.762-6.19-14.286-7.047.286-.381-.762-.762-2.286-.762-1.428-.095-9.619-2.857-18.19-6.286-24.286-9.619-78.38-28.667-96.857-34-19.524-5.619-19.143-5.81 11.333-6.095 14.857-.095 27.905-.095 28.953 0s1.619-.19 1.142-.571c-.38-.477-15.619-.762-33.904-.762h-33.143l-13.81-4.572-13.714-4.476-.19-3.524-.096-3.428-.476 3.238c-.19 1.81-.666 3.238-1.047 3.238s-4.096-1.048-8.19-2.381c-4.096-1.333-17.81-5.62-30.477-9.524-18.952-5.714-63.905-20.762-70.762-23.619-3.905-1.619-1.047-2 14.286-2 8.762.095 16-.286 16-.667 0-.476-8.476-.857-18.762-.857-20.952 0-23.524-.476-37.81-6.762-28.19-12.38-30.476-13.523-44.19-21.619-9.429-5.619-21.524-15.047-20.571-16 .38-.38 12.857-.476 27.714-.285l27.047.38zm-59.238 1.905c14.667 11.714 32.476 21.619 60 33.143 6.286 2.571 11.238 4.857 11.048 5.047-.19.096-12.19.476-26.667.857l-26.286.477-9.047-5.429c-4.953-2.952-12.572-8-17.048-11.143-8.095-5.905-29.714-25.81-29.714-27.428 0-.477 6.952-.953 15.524-.953h15.524zm1028.761 37.143c6.572-.096 12.572.285 13.238.857.762.571 1.238.476 1.238-.286 0-.857 8.19-1.143 30.667-1.048 26.286.096 30.476.286 29.238 1.429-1.524 1.524-30.762 15.429-46.952 22.286-22.953 9.81-60 24.19-62.572 24.38-1.619.096-6.857.096-11.619 0l-8.762-.19v-4.476c0-2.476-.38-4.476-.952-4.476-.476 0-.667.857-.381 2 .286 1.047.286 3.143-.095 4.476l-.572 2.476h-28c-15.428 0-28-.286-28-.666 0-.477 3.715-2.381 8.286-4.191 4.476-1.905 16.667-7.238 27.048-11.81 10.38-4.666 19.524-8.19 20.285-7.904.762.285 1.715 0 2.096-.762.476-.667 7.714-4.857 16.285-9.333 8.572-4.477 18-9.524 20.953-11.143 3.047-1.715 5.714-2.667 6-2.286s5.904.667 12.571.667m-22 .666c.286.286-4.286 3.238-10.19 6.381-6 3.143-13.62 7.238-17.048 9.143l-6.286 3.429v-9.429c0-5.143.19-9.524.381-9.81.762-.666 32.381-.476 33.143.286m-394.476 24.286c0 21.714-.19 23.524-1.81 23.619-1.618.095-1.618.19 0 .571 1.62.477 1.715 2.477 1.715 23.048 0 20.095-.286 22.762-1.714 23.905-1.62 1.238-1.62 1.333 0 1.333 1.524 0 1.619 2 1.428 24.286l-.19 24.286-11.62.285-11.713.286-.572-4.286c-.286-2.38-.38-13.333-.286-24.285l.19-20 9.81-.286c5.334-.19 9.715-.667 9.715-1.143s-4.381-.762-9.715-.762l-9.714.19-.286-22.761-.285-22.762h6.38c3.62 0 6.763-.381 7.048-.857.286-.477-2.285-.667-5.81-.381l-6.38.476-.476-3.333c-.286-1.905-.667-12.762-.667-24.19l-.19-20.763h25.142zm-517.523-15.619c28.095 10.095 84.476 28.19 99.524 31.905 3.143.762 3.428 1.143 3.714 5.047.286 3.429 0 4.19-1.429 4.286-1.714.095-1.714.19-.095.571 1.524.381 1.81 1.715 1.81 7.905 0 5.238-.381 7.429-1.238 7.429-.667 0-4.19-1.048-7.81-2.381-3.524-1.334-10.095-3.334-14.476-4.572-11.143-3.047-20.476-6.38-20.476-7.333 0-.38 9.047-.857 20.19-.952l20.286-.19-19.524-.286c-10.666-.191-20.095 0-20.952.38-.857.381-2 .572-2.572.381-.571-.095-2.095-.476-3.428-.666-3.62-.572-32-9.62-49.048-15.524-31.428-10.952-38.952-14-39.047-15.714 0-1.334-.096-1.429-.857-.19-.762 1.142-3.62.285-16-4.858-8.286-3.524-16.477-7.428-18.19-8.667l-3.239-2.38 26.952-.286c14.762-.19 26.857-.381 26.953-.572 0-.095 8.571 2.857 18.952 6.667m102.476-5.333c0 1.238-.571 1.428-2.286.952-3.81-1.143-4.285-2.476-.952-2.476 2.286 0 3.238.476 3.238 1.524m209.524 5.619c4.38 1.619 13.333 4.857 20 7.238 23.619 8.476 44.285 18 59.047 27.143l7.905 4.952-5.429.571-5.523.667 6.571.095c6.286.19 6.667.381 13.143 5.62 3.619 2.952 9.048 8.666 12.19 12.57 5.143 6.667 17.238 26.763 16.381 27.43-.19.19-15.047.57-33.047.952l-32.762.666-14.286-6.952c-13.714-6.667-28.095-12.952-47.428-20.571l-9.238-3.715v-15.428l7.428.095c4.19 0 7.524-.286 7.524-.571 0-.381-3.238-.762-7.143-.762-4-.096-7.333-.286-7.428-.381-.286-.286-.762-40.096-.572-42.572.19-1.523.667-1.333 12.667 2.953M309.759 536.7c4.571 1.62 8.571 3.238 8.857 3.524.38.381-4.095.667-10 .667h-10.667v-4.095c0-3.524.286-4.096 1.714-3.62.953.381 5.524 1.905 10.096 3.524m567.237-.857c0 2.857-.286 3.048-4 3.048-2.286 0-4-.476-4-.953 0-.761 6.095-4.761 7.714-5.047.096 0 .286 1.333.286 2.952m192.952 7.143v3.62l-12.762 4.475c-7.047 2.572-32.761 11.238-57.142 19.334l-44.381 14.666-14.857-.095c-8.19-.095-14.857.19-14.857.667 0 .38 5.238.571 11.714.38 6.476-.095 11.428 0 11.047.382-1.619 1.619-65.238 22.476-68.666 22.476-.762 0-1.048-3.143-1.048-9.905v-9.905l3.714-1.333c2.477-.762 9.429-1.238 20.286-1.143h16.476l-13.238-.667c-7.238-.38-13.524-.952-13.81-1.238-.666-.666 1.62-1.524 35.048-14.19 13.715-5.238 36.857-14.19 51.524-19.905 14.571-5.714 27.143-10.667 28-11.048.762-.285 15.333-.476 32.19-.38l30.762.19zm17.048-3.333c0 .38-3.048 1.904-6.762 3.238-3.714 1.333-7.143 2.666-7.524 2.857-.38.19-.762-1.238-.762-3.143v-3.428l7.524-.191c4.095-.095 7.524.19 7.524.667m-754.952 4.19c5.715 1.62 19.143 5.905 29.905 9.524s24.19 8.095 30 10c14 4.38 57.143 20 61.143 22.095 2.19 1.143 2.762 1.905 1.905 2.381-.858.572-.953 1.048-.19 1.429.57.38 1.237.285 1.523-.19.667-1.048 9.048.094 10.857 1.523.667.476 5.524 2.667 10.762 4.762s10.476 4.286 11.714 4.857c2.19.952 2.286 1.524 2.286 11.81 0 6-.286 10.857-.762 10.857-.38 0-11.714-4-25.238-8.953-13.429-4.952-32.857-11.81-42.952-15.428-10.19-3.524-19.334-6.762-20.286-7.143-3.524-1.429-1.62-2.381 5.524-2.762 4.571-.19 3.238-.286-3.81-.38h-10.952l-26.476-8.572c-14.667-4.762-35.715-11.524-46.953-15.048-22.952-7.238-22.38-6.857-21.904-16.667l.285-5.523 11.048-.572c6-.286 11.238-.666 11.524-.762.38-.095 5.333 1.143 11.047 2.762m159.334-1.333c.857 2.38.666 12.19-.286 12.762-.476.285-3.048-.286-5.714-1.334-2.762-1.047-10.572-3.904-17.429-6.38-6.762-2.381-12.571-4.858-12.762-5.524-.286-.857 4.571-1.143 17.62-1.143 15.428 0 18 .19 18.57 1.619M658.9 563.938l.095 23.048-13.714-.286-13.619-.285-5.143-9.048c-6.857-12.286-13.047-20.667-20.952-28.476-3.62-3.524-6.572-6.762-6.572-7.238 0-.381 13.429-.762 29.905-.762h29.905zm25.81-.285-.286 22.762-12.19.285-12.286.286v-46.095h25.047zm386-1.334-.286 5.048-8.477 2.667c-4.666 1.523-18.19 5.428-30 8.857-11.81 3.333-22.476 6.476-23.619 6.952-1.333.572-2.571.476-3.523-.38-.858-.763-2.572-.953-4.858-.477l-3.523.667 4.285.095c2.477.095 4.096.571 3.81 1.048-.381.57-6.572 2.857-13.81 5.142-7.333 2.286-17.238 5.524-22.095 7.143-4.857 1.62-9.428 2.667-10.286 2.381-.761-.286-1.333-.095-1.333.381 0 .857-74.666 26.095-77.047 26-.667 0-.953-3.143-.762-8.667l.285-8.666 14-4.19c7.715-2.286 21.143-6.572 30-9.43 28.19-9.237 34.667-10.952 41.524-11.142 5.714-.095 6-.19 2.476-.857l-4-.667 2.762-1.143c1.62-.666 3.143-1.238 3.524-1.238 1.333 0 87.714-28.952 93.714-31.428l6-2.477.762 4.667c.476 2.476.667 6.857.476 9.714m-568.095-.285c14.476 5.714 46.761 20.095 51.333 22.762l4.476 2.57-4.476.668-4.476.571 5.81.095c4.856.19 6.952.857 12.57 4.19 8.096 4.667 26.572 18.382 33.62 24.858 6.666 6.286 17.523 18.095 17.523 19.238 0 .476-5.428.762-12.761.571-7.048-.19-17.715-.095-23.81.286l-10.952.572-22-11.048c-12.096-6.095-28.572-14.095-36.476-17.81-20.858-9.619-19.524-8.571-19.81-15.142l-.38-5.524 22.38-.19 22.286-.286-22.286-.286-22.19-.286v-14.476c0-8.19.38-14.476.857-14.476.571 0 4.476 1.428 8.762 3.143m373.618 25.904c-1.143 1.238-7.428 3.429-83.81 29.81l-54 18.571-13.237.381-13.238.286v-8.762c0-4.857.38-9.333.762-9.905.857-1.238 55.904-29.047 60.952-30.762 4.286-1.523 104.095-1.142 102.571.381m-108.285-.285c0 .666-53.905 28.19-55.334 28.19-.38 0-.666-6.476-.666-14.476V586.89h28c15.428 0 28 .38 28 .762m-135.429 3.904c6.667 16 14.476 39.715 14.476 44.381 0 1.048.381 2.762.953 3.715.571.952 2.095 7.333 3.428 14.19 1.334 6.952 2.477 11.524 2.477 10.381.095-1.81-2.381-15.81-4.381-25.333-1.62-7.334-7.334-25.715-11.048-35.524-2.571-6.572-4.857-12.762-5.143-13.714-.476-1.62.476-1.81 12.572-1.81h13.142l-.285 24.762-.286 24.762-2.952.667-3.048.666 3.238.095 3.333.096v26c0 15.523-.38 26-.952 26-.571 0-.952-1.715-1.048-3.715 0-2.095-.476-5.619-1.047-7.81-.953-3.904-.953-3.904-.476 1.239.38 4.857.19 5.333-1.81 5.429l-2.19.095 2.19.476c2.095.38 3.429 3.333 1.524 3.238-2.667 0-5.238-1.429-4.857-2.476.285-.762-.096-1.524-.953-1.81-.762-.38-4.095-6.095-7.333-12.857-6.762-13.905-11.714-23.047-16-29.143l-2.857-4.19 10.095-1.143 10.19-1.238-10.57.476-10.572.476-6.381-7.523c-10.286-12-27.62-26.572-42.762-36-3.429-2.096-6.19-4.19-6.19-4.667s8.19-.952 18.19-1.048c10.095-.19 24.476-.476 32-.571l13.714-.286zm52.476 20.858v24.476H659.95v-49.048h25.047zm192.953-13.048v9.524l-3.239 1.524c-3.714 1.619-62.38 19.238-79.238 23.619-6.095 1.619-11.81 2.761-12.761 2.476-.953-.19-1.715-.095-1.715.285 0 .381-1.524.572-3.333.477-2.857-.286-2.952-.286-.667.476 1.81.667 2.096 1.047.953 1.428-1.62.667-23.62 6.858-32.19 9.143-2.953.762-11.43 3.238-18.763 5.429-7.428 2.286-13.904 4.095-14.285 4.095s-.762-2.571-.762-5.714v-5.715l14.762-4.666c8.095-2.572 15.619-4.953 16.762-5.333 1.619-.572 1.714-.477.476.38-1.143.762 2.571 1.048 13.523.953l14.953-.19-12.667-.572c-11.905-.571-15.905-1.429-12.666-2.571.761-.286 18.19-6.096 38.857-13.048 36.952-12.476 86.952-30.095 87.81-30.952.285-.286 1.332-.572 2.38-.572 1.62 0 1.81 1.048 1.81 9.524m-378.857 5.428c7.524 3.239 17.619 8.096 42.857 20.477l24.476 12.095-8.476.571-8.476.572 10 .19 10 .19 15.523 9.239c18.096 10.952 35.524 22.571 38.858 26.19 2.761 2.953 2.571 3.143-1.524 1.143-8.095-4-38.286-16.762-57.334-24.19-11.904-4.667-22.57-8.858-23.809-9.429-3.524-1.428-1.62-3.238 2.857-2.667 2.19.286 4.19.096 4.476-.38.572-1.048-8.476-1.239-10.952-.286-.857.285-1.429.952-1.143 1.428.286.381-1.143 0-3.238-1.047-2.095-.953-11.905-4.762-22-8.572l-18.19-6.762v-10.38c0-5.62.38-10.286.857-10.286.476 0 2.857.857 5.238 1.904m378.857 15.524v8.381l-5.239 2c-10.285 3.81-19.904 6.286-22.761 5.81-1.62-.19-3.239 0-3.524.476-.381.476.095.857 1.047.857.858 0 1.334.476.953 1.048-.286.571-1.238.952-2 .952-1.524 0-42.286 14.19-88 30.571-40 14.381-39.714 14.286-42.952 14.667l-3.048.286-.286-12.953-.19-13.047 18.762-5.238c10.285-2.953 23.904-6.857 30.285-8.667 17.715-5.143 30.381-8.571 31.429-8.571.571 0 7.333-2 15.047-4.476 21.715-7.048 66.762-20.381 68.762-20.477 1.524 0 1.715 1.048 1.715 8.381m-147.524 18.476c-.572.477-4.286 1.905-8.381 3.048-4 1.238-8 2.476-8.762 2.762-.952.38-1.333-.476-1.333-3.143v-3.619h9.714c5.81 0 9.333.381 8.762.952m-103.81 8.667c5.334 8.286 19.334 34.572 19.334 36.476 0 3.143-11.334-2.476-21.334-10.666-9.142-7.334-28.857-20.667-41.428-27.905-4.571-2.572-8.19-5.143-8.19-5.62 0-.475 10.285-.856 22.952-.856h23.047zm18.19 39.524c2.763.952 5.049 4.286 3.81 5.524-.285.285-2.19-1.048-4.38-3.048-4.191-3.81-4.096-4.095.57-2.476m9.906 4.952c2.952 1.715 3.333 2.476 3.047 5.62-.476 5.523-2.285 5.047-5.238-1.048-3.619-7.62-3.428-8 2.19-4.572m3.904 17.143c.19 3.81.096 4-.857 1.81-.571-1.334-1.428-3.715-1.81-5.238-.761-2.381-.666-2.667.858-1.81 1.143.571 1.714 2.286 1.81 5.238"/>
	<path d="M801.187 254.605c.19 1.334 1.238 1.715 3.81 1.715 2.38-.096 3.333-.572 3.142-1.524-.19-1.143 0-1.143 1.048.095 1.524 1.81 13.904 2.19 14.476.381.19-.571-.857-1.143-2.381-1.238-10.095-.571-12.952-.571-14 .19-.667.477-2.095.286-3.238-.285-2.762-1.429-3.333-1.334-2.857.666m29.809-1.142c0 .57-1.428 1.047-3.047.952-1.81-.095-2.953.19-2.667.857.38 1.048 5.429 1.238 6.38.19.287-.19.287-1.047 0-1.714-.285-.762-.57-.857-.666-.285m-49.619 46.571c-.476.762-.285.952.572.38.666-.475 1.619-.19 2.19.572.762 1.143.857 1.143.572 0-.477-1.904-2.381-2.476-3.334-.952m-20.381.857c0 .571.476.952 1.048.952.571 0 .762-.38.38-.952-.285-.571-.761-1.048-1.047-1.048-.19 0-.38.477-.38 1.048m27.999-.191c0 .477.667.858 1.429.858.857 0 1.524-.381 1.524-.857 0-.477-.667-.858-1.524-.858-.762 0-1.429.381-1.429.858m8.476.095c.858.857 10.381.762 9.81-.095-.19-.477-2.667-.762-5.429-.667s-4.666.38-4.38.762m9.142 46.762c-1.428 1.428-.476 2.38 2.381 2.095 1.62-.095 2.953-.572 2.953-1.048 0-.571-1.143-.666-2.572-.285-1.714.38-2.38.285-2-.381.762-1.143.286-1.429-.762-.381m-23.619 1.619c0 .38 2.381.666 5.429.666 3.047 0 5.524-.285 5.524-.762 0-.476-2.477-.857-5.524-.761-2.953 0-5.429.38-5.429.857"/>
	<path d="M794.996 348.796c0 .476 2.19.857 4.953.952 6.476.095 6.476-1.238 0-1.619-2.762-.095-4.953.19-4.953.667m18 .095c0 .571.857.952 2 .952 1.048 0 2-.38 2-.952 0-.571-.952-1.048-2-1.048-1.143 0-2 .477-2 1.048m4.953 0c0 .571.666.952 1.428.952s1.714-.38 2.095-.952c.286-.571-.285-1.048-1.428-1.048s-2.095.477-2.095 1.048m5.047-.191c0 .762 20.953.477 21.81-.285.285-.286-4.572-.572-10.667-.572-6.19 0-11.143.381-11.143.858m-44.762.857c.953.285 2.286.285 2.953 0 .666-.286-.095-.477-1.715-.477-1.714 0-2.19.286-1.238.477m290.762-179.143c-.095 4.38-.286 9.429-.381 11.238-.19 3.238.667 4.381 1.62 2 .19-.667.094-5.81-.287-11.238l-.666-10zm0 16.762c0 .857-.571 1.714-1.143 1.905-.762.285-.762 1.142 0 3.142.572 1.524 1.143 4.19 1.143 6l.095 3.143.953-2.952c.476-1.62.571-5.048.285-7.524-.476-4.476-1.333-6.762-1.333-3.714m0 16.286c0 .857.38 1.238.952.952.572-.381 1.048-1.048 1.048-1.62 0-.475-.476-.951-1.048-.951-.571 0-.952.761-.952 1.619m.286 7.904c0 3.334.19 4.572.38 2.762.191-1.81.191-4.476 0-6-.19-1.524-.38 0-.38 3.238m-.286 24.572v18.095l-18.095-.286c-12.762-.285-18 0-18 .762s5.143 1.048 18.095.762l18-.38.095 2.761.095 2.762.667-2.572c.762-2.666 1.143-2.666 24.857-2.857 2.953-.095 5.143-.476 4.857-.857-.285-.476-7.047-.666-15.047-.476l-14.572.38.286-18.094c.19-9.905 0-18.096-.476-18.096s-.762 8.191-.762 18.096m-53.619 17.904c-1.333 1.239.286 1.715 6.762 1.81 4 .095 7.905-.286 8.762-.762 1.619-.952 1.524-1.048-9.81-1.333-2.952-.095-5.524 0-5.714.285m53.905 20.572c0 6 .19 8.38.38 5.143.191-3.143.191-8.096 0-10.953-.19-2.857-.38-.285-.38 5.81m-79.334 25.619c0 .476 6.096.857 13.524.762 7.429-.095 13.524-.476 13.524-.953 0-.476-6.095-.761-13.524-.761s-13.524.476-13.524.952m-112.857 18.857c0 1.333.286 1.905.477 1.238.285-.667.285-1.81 0-2.476-.19-.667-.477-.095-.477 1.238m53.905 29.429c0 .857.381 1.523.953 1.523.57 0 1.047-.38 1.047-.857 0-.571-.476-1.238-1.047-1.619-.572-.286-.953.095-.953.953m4.952-.381c0 .571.858.952 2 .952 1.143 0 2-.19 2-.381 0-.19-.857-.667-2-.952-1.142-.286-2-.096-2 .38m6-.095c-1.142.762-.476 1.048 2.477.953 3.143 0 3.619-.19 2-.953-2.572-1.047-2.762-1.047-4.477 0m15.62-.19c-.286.476.38.762 1.428.762s2-.286 2-.762c0-.381-.667-.762-1.524-.762-.762 0-1.619.38-1.904.762m8.285.381c-1.143.857-1.143.952.286.476.952-.286 1.905 0 2.19.667.381.952.477.952.572 0 .095-1.715-1.333-2.286-3.048-1.143m4.095-.191c0 .477.477 1.238 1.143 1.62.762.476.857.285.381-.572-.571-.857-.19-1.048 1.62-.571 1.809.571 2 .476.856-.381-1.904-1.238-4-1.334-4-.096m8 0c-1.238.858-1.238 1.048.286 1.048.953 0 1.714-.476 1.714-1.048 0-1.142-.095-1.142-2 0m4.572 0c-.952 1.524 1.047 2.096 3.619 1.048 2.19-.952 2.095-1.048-.572-.476-1.809.38-2.57.19-2.19-.476.381-.572.476-1.048.19-1.048-.285 0-.761.38-1.047.952m-28.572 1.048c0 .571.477.952 1.048.952a.954.954 0 0 0 .952-.952c0-.571-.476-1.048-.952-1.048-.571 0-1.048.477-1.048 1.048m35.048-.571c0 .761 6 1.142 7.143.38.762-.476-.381-.761-2.952-.761-2.286 0-4.19.095-4.19.38m81.237 11.524c0 3.048.19 4.286.476 2.762.19-1.524.19-3.905 0-5.428-.285-1.524-.476-.286-.476 2.666m-.19 28.667c0 1.143.285 1.333.571.571.286-.761.286-1.619-.095-1.904-.286-.381-.572.285-.476 1.333m-145.429 6c.476 1.143.286 1.524-.476.952-.667-.38-1.143-.19-1.143.381 0 .572.667 1.048 1.429 1.048 1.714 0 2.095-2.571.571-3.524-.667-.286-.762.095-.38 1.143m10.761-.476c-.38.571-.095 1.524.476 2.19.953.857 1.048.667.572-.857-.667-1.905-.572-1.905.952 0 1.238 1.524 1.62 1.62 1.62.286 0-1.905-2.763-3.143-3.62-1.62m4.571.382c0 .857.477 1.333 1.048.952.476-.286.952-.19.952.19 0 .477 1.62.953 3.524 1.048 2.572.19 3.524-.095 3.524-1.238 0-.762-.571-1.524-1.143-1.524-.571 0-.762.477-.38 1.048.285.571.095.952-.477.952-.571 0-1.048-.666-1.048-1.619 0-1.333-.19-1.428-1.619-.19-1.333 1.047-1.81 1.047-2.095.095-.666-1.81-2.286-1.524-2.286.286m11.048 0c-.095 2 2 2.19 17.238 1.524.381 0 .762-.381.762-.858 0-1.333-16-1.238-16.095.096-.095.666-.476.285-.953-.762l-.857-2zm71.238-.857c-3.524.666-2.667 1.904 1.238 2 2.381.095 3.524-.286 3.524-1.238 0-1.43-.667-1.524-4.762-.762M910.996 394.7c0 1.334 3.143 2 5.429 1.143q2-.857.571-.857c-.857-.095-2.571-.38-3.81-.762-1.237-.285-2.19-.095-2.19.476m8 .762c0 .858.381 1.238.953.953.57-.381.761-1.048.476-1.62-.857-1.333-1.429-1.142-1.429.667m8.476-.572c-.38.572.096 1.334.953 1.62 2.19.857 2.666.19.952-1.333-.857-.857-1.524-.857-1.905-.286m4.096.19c.285.477.952.762 1.428.762.572 0 .953-.285.953-.762 0-.476-.667-.857-1.43-.857-.856 0-1.237.381-.951.857m39.619-.095c.19.572.666 1.048 1.047.953.381 0 2.762-.096 5.238-.096s4.476-.38 4.476-.952c0-.571-2.476-1.048-5.619-1.048-3.523 0-5.428.477-5.142 1.143m11.809-.096c0 .477 8.095.858 18 .763 9.81 0 18-.476 18-.953 0-.476-8.19-.761-18-.761-9.905.095-18 .571-18 .952M876.9 434.89l-.475 8.477-24.19-.095c-13.334 0-24.286.38-24.286.762 0 .476 11.047.762 24.476.571l24.571-.19.095 4.476.096 4.476.666-4.476c.286-2.476.381-8.572 0-13.524l-.476-8.952zm-90.951 8.858c0 .476.666.762 1.428.762.857 0 1.238-.286.953-.762s-.953-.857-1.429-.857c-.571 0-.952.38-.952.857m4.571.095c-.857 1.238-.762 1.238 2.667 1.429 1.524.095 2.762-.19 2.762-.572 0-.476-.381-.857-.953-.857-.476 0-1.524-.19-2.38-.476-.763-.38-1.715-.095-2.096.476m6.952 0c-.285.476.381.857 1.429.762 1.143-.095 2.095-.476 2.095-.952 0-1.048-2.762-.953-3.524.19m4.477-.095c0 .476.666.762 1.428.762.857 0 1.238-.286.953-.762s-.953-.857-1.429-.857c-.571 0-.952.38-.952.857m4.381.286c-.381.666-.286.857.38.476.572-.381 1.334-.095 1.62.667.285.762.476.476.571-.572.095-1.905-1.429-2.286-2.571-.571m4 .095c-.381.571-.096.857.761.571.762-.285 2.096-.19 3.048.286.952.572 2.667.476 4 0 2.095-.857 2.095-.952.286-1.143-1.048 0-3.238-.285-4.667-.476-1.524-.19-3.047.095-3.428.762m12.19-.286c-1.905.667-1.905.762.19 1.334 1.239.285 2.477.19 2.762-.286.762-1.333-.761-1.81-2.952-1.048m64.19.191c-.857.571-.285.857 1.524.857 1.524 0 2.762-.381 2.762-.857 0-1.048-2.571-1.048-4.286 0m7.239-.191c-1.334.476 5.81.572 16 .381 10.095-.285 18.666-.666 18.857-.857.857-.857-32.286-.286-34.857.476m40.19-.381c.952.953 13.81 1.238 14.38.286.287-.476-2.856-.857-7.142-.857s-7.524.19-7.238.571m15.809.286c0 .952 5.715.762 6.762-.286.286-.285-1.047-.571-3.047-.571-2.095 0-3.715.38-3.715.857m8 .095c0 .476.858.667 2 .381 1.143-.285 2-.762 2-.952s-.857-.381-2-.381c-1.142 0-2 .38-2 .952m7.239-.19c1.523.19 3.81.19 5.047-.095 1.238-.19 0-.381-2.762-.381s-3.81.19-2.285.476m10.476-.095c1.238.285 3.333.285 4.571 0 1.238-.19.19-.381-2.286-.381s-3.523.19-2.285.38m-92.857 1.048c.666.286 1.524.19 1.904-.095.286-.381-.285-.571-1.333-.571-1.143.095-1.428.285-.571.666m-5.81 15.238c0 3.524.286 6.095.667 5.715.667-.762.476-10.858-.286-11.524-.19-.286-.38 2.38-.38 5.81m-.001 9.999c0 4.19 1.429 4.572 1.524.476 0-1.904-.286-3.428-.762-3.428s-.762 1.333-.762 2.952m1.048 10.667c0 1.143.286 1.333.571.571.286-.762.286-1.619-.095-1.904-.286-.381-.571.285-.476 1.333m0 7.619c-.095 1.619-2.095 1.714-27.238 1.714-14.953 0-26.953.286-26.667.572.286.285 12.286.571 26.667.476H876.9l.476 2.19c.286 1.334.667 3.62.857 5.334.286 1.714.476.666.572-2.286l.19-5.238 8.19-.19c4.572-.096 13.524-.096 20-.096 7.239 0 11.81-.38 11.81-1.047s-6.857-.762-20-.381c-18.286.571-19.905.571-20.38-1.048-.382-1.62-.477-1.62-.572 0m-60.571 2.476c-.476 1.429-.38 1.524.572.572.667-.667 1.047-1.524.667-1.81-.286-.286-.858.286-1.239 1.238m104.477-.857c0 .952 9.809.667 10.761-.286.286-.285-2-.571-5.047-.571-3.143 0-5.714.38-5.714.857m-176.667 1.238c-1.048.381-2.286.381-2.857.095-.667-.285-.667-.19 0 .477.571.666 3.333.761 6.571.38 5.143-.571 5.238-.666 1.81-1.142-2.095-.286-4.572-.19-5.524.19m13.333-.286c-.285.381.857.858 2.667.953 2.571.095 2.857 0 1.143-.762-2.572-1.143-3.238-1.143-3.81-.19m15.81.189c-.286.572-.095.953.476.953s1.048-.38 1.048-.952-.19-1.048-.477-1.048c-.19 0-.666.476-1.047 1.048m10.571.286c0 .38 1.524.666 3.429.666s3.524-.285 3.524-.762c0-.38-1.62-.762-3.524-.762-1.905.096-3.429.381-3.429.858m24.476-.287c.286.572.762.953 1.048.953.19 0 .476-.38.476-.952s-.571-1.048-1.143-1.048c-.571 0-.762.476-.38 1.048m2.476-.001c0 .572.476.953 1.047.953a.954.954 0 0 0 .953-.952c0-.572-.477-1.048-.953-1.048-.571 0-1.047.476-1.047 1.048m9.047.095c0 .572.381.762.953.381.571-.286 1.047-.762 1.047-1.048 0-.19-.476-.476-1.047-.476-.572 0-.953.572-.953 1.143m-43.047.952c0 .572.476.762 1.047.477.476-.381.953-.857.953-1.048 0-.286-.477-.476-.953-.476-.571 0-1.047.476-1.047 1.047m99.523 11.905c-.38.572-.19 1.048.381 1.048.572 0 1.143-.476 1.143-1.048 0-.476-.286-.952-.476-.952-.286 0-.762.476-1.048.952m.191 9.334c.667 10.19 1.143 10.571 1.238.952 0-4.572-.381-8.286-.857-8.286s-.667 3.334-.381 7.334M126.997 256.224c0 .667 1.333 1.334 3.048 1.524 2.095.095 2.952-.19 2.666-1.047-.571-1.715-5.714-2.096-5.714-.477m7.333-.19c-.19.38 0 1.048.572 1.333.571.381 1.047.19 1.047-.476 0-.667.667-.762 1.715-.286 2.571 1.143 6.571.953 6.952-.285.476-1.238-9.429-1.524-10.286-.286m13.62-.191c-2.858.953-2.667 1.143 1.237 1.62 1.905.19 2.762-.191 2.762-1.143 0-1.524-.285-1.62-4-.477m5.429.191c-.857 1.429 2.476 2.19 4.952 1.048q2.286-1 4 0c2 1.142 3.143.476 2.19-1.048-.761-1.238-10.38-1.333-11.142 0m1060.57 43.619c0 .952 19.62.952 20.476.095.381-.38-4.095-.762-9.904-.762-5.81-.095-10.572.286-10.572.667m-94 48.286-14.476.571 18.572.095c10.19.096 18.952.286 19.428.381 2 .381 4.476-.095 4.476-.857 0-.857-8.285-.952-28-.19m30.382.095c-.382.667-.286.857.38.476.572-.38 1.334-.095 1.62.667.285.762.475.476.57-.572.096-1.904-1.428-2.285-2.57-.571m3.618 0c0 .571.381.762.953.38.476-.285 2-.094 3.333.382 1.619.666 2.38.571 2.38-.286 0-.571-1.523-1.238-3.332-1.333-1.81-.096-3.334.285-3.334.857m8-.286c0 .381 1.62.667 3.524.762 1.905 0 3.524-.286 3.524-.571 0-.381-1.62-.667-3.524-.762-1.905 0-3.524.19-3.524.571m11.81.857c.762.286 1.619.19 1.905-.095.38-.38-.286-.571-1.334-.571-1.143.095-1.333.285-.571.666m20.476 0c9.143.19 24.286.19 33.428 0 9.239-.095 1.715-.285-16.666-.285-18.476 0-26 .19-16.762.285m-94.762 94.285c-.38.572-.19.953.381.953.572 0 1.143-.38 1.143-.952s-.286-1.048-.476-1.048c-.286 0-.762.476-1.048 1.048m4-.001c-1.905.858-1.905.858.19.953 1.239 0 2.286-.38 2.286-.952s-.095-.952-.285-.952c-.096.095-1.143.476-2.19.952m22.951-.001c-.285.572-.095.953.477.953.571 0 1.047-.38 1.047-.952s-.19-1.048-.476-1.048c-.19 0-.667.476-1.048 1.048m-30.666.667c.762.285 1.619.285 1.905-.096.38-.285-.286-.571-1.334-.476-1.143 0-1.333.286-.571.572m22.952 0c.667.285 1.81.285 2.476 0 .667-.286.096-.477-1.238-.477-1.333 0-1.904.19-1.238.477m-155.238 46.38c5.238 1.143 7.524 1.143 7.524.096 0-.476-2.667-.857-5.81-.857-5.523-.096-5.618-.096-1.714.761m-71.523 49.048c-8.667.381-3.905.571 15.714.667 18.095 0 28.285-.286 28.285-.953 0-.952-18.761-.857-44 .286m45.048 0c0 .476.857.857 2 .857 1.048 0 2-.095 2-.38 0-.191-.952-.572-2-.858-1.143-.286-2-.095-2 .381m5.81.095c.571.667 1.523.667 2.666 0 1.524-.762 1.334-.952-.952-.952-1.81 0-2.381.38-1.714.952m5.142-.476c0 .762 50.572.572 52.477-.19.571-.19-11.048-.381-25.715-.477-14.762 0-26.762.286-26.762.667m318-190.666c-3.619.285 4.381.571 17.714.571 13.334 0 24-.286 23.715-.762-.572-.857-31.143-.762-41.429.19M50.997 365.462c.095 1.143.286 1.429.667.572.285-.667.19-1.524-.096-1.905-.38-.286-.571.286-.571 1.333m1168.951 77.428c-2.476.382 5.429.668 17.524.668 17.714 0 19.905-.19 11.524-.762-13.048-.857-23.143-.857-29.048.095m-20.285.762c2.952.19 7.619.19 10.57 0 2.858-.19.477-.381-5.237-.381-5.81 0-8.19.19-5.333.38m79.047-1.047c1.238.19 3.048.19 4 0 .952-.286-.095-.476-2.286-.476s-2.952.19-1.714.476m-44.476 47.048c2.667.19 6.667.19 8.952 0 2.381-.286.19-.381-4.762-.381s-6.857.19-4.19.38m14.952-.094c1.048.285 2.381.285 3.048 0 .667-.286-.095-.477-1.81-.477-1.619 0-2.19.286-1.238.477m12.476 0c.762.285 1.81.285 2.572 0 .667-.286.095-.477-1.238-.477-1.429 0-2 .19-1.334.477m-142.285 49.428c-.286.476 5.238.857 12.19.857 6.953 0 12.477-.19 12.286-.38-.857-.858-24-1.239-24.476-.477m28.095.857c1.905.857 7.238 1.429 6.381.667-.19-.19-2.19-.667-4.38-.953-2.858-.476-3.43-.38-2 .286M224.33 444.796c-.19.19-8.286.38-18 .285-11.619-.095-17.333.19-16.762.858 1.238 1.238 43.429.857 43.429-.477 0-.857-7.81-1.428-8.667-.666M62.616 436.51c-.38.38-.095 1.333.476 2.095.953 1.048.762 1.238-.762.667-1.523-.572-1.619-.476-.666.667.666.761 2 1.428 2.857 1.523 1.143.19 1.333-.285.857-1.904-.857-2.762-1.905-3.905-2.762-3.048m445.809 55.333c-2.762.762-2.762.857-.476.953 1.333 0 3.143-.381 4-.953 1.714-1.047.857-1.047-3.524 0m6 0c-.476.953 12.381 1.429 26.572 1.143 1.333 0 7.333-.095 13.238-.095 6.095 0 10.761-.381 10.761-.953 0-1.333-49.714-1.428-50.57-.095m51.523 0c0 .572.667 1.048 1.524 1.048.762 0 1.523-.476 1.523-1.048 0-.476-.761-.952-1.523-.952-.857 0-1.524.476-1.524.952m4 0c0 .572.667 1.048 1.524 1.048.762 0 1.523-.476 1.523-1.048 0-.476-.761-.952-1.523-.952-.857 0-1.524.476-1.524.952m4-.19c0 .38 1.81.762 4 .857s4-.286 4-.762-1.81-.857-4-.857-4 .38-4 .762m9.047.095c0 .38 2.19.762 4.953.762 2.762 0 5.047-.286 5.047-.762s-2.285-.857-5.047-.857-4.953.38-4.953.857m11.144.381c.57 1.524 6 1.619 6.57 0 .286-.857-.761-1.238-3.237-1.238s-3.524.38-3.334 1.238m7.81-.476c0 .38 1.619.762 3.524.762 1.904 0 3.523-.286 3.523-.762 0-.381-1.619-.762-3.523-.762s-3.524.38-3.524.762m-105.239.952c1.81.19 4.477.19 6 0 1.525-.19 0-.38-3.237-.38-3.334 0-4.572.19-2.762.38m162.285 11.905c.096 1.143.286 1.333.667.571.286-.762.19-1.619-.095-1.904-.381-.381-.572.285-.572 1.333m0 3.428c0 .572-.476.762-1.047.477-.572-.381-.953-.19-.953.38 0 .572.381 1.048.858 1.048.571 0 1.142 2.667 1.333 5.81.38 5.524.38 5.524.571-1.524.096-4 0-7.238-.285-7.238-.286 0-.477.476-.477 1.047m-433.523-16.095c-.762 1.143 1.143 2.381 2.476 1.524 1.143-.667.381-2.476-.952-2.476-.572 0-1.143.38-1.524.952m5.905 0c.285.476 0 1.143-.667 1.429-.762.286-.571.476.476.571.953 0 1.81-.666 1.81-1.428 0-.857-.572-1.524-1.143-1.524s-.762.38-.476.952m6.572 0c0 .667.38.953.952.572.476-.286 1.142-.096 1.428.476.286.571.381.476.19-.19-.285-1.524-2.57-2.286-2.57-.858m4 0c0 .476.475 1.238 1.142 1.62.667.475.857.285.476-.286-.38-.667-.095-1.334.667-1.62.762-.285.476-.57-.572-.57-.952-.096-1.714.285-1.714.856m4.953.286c0 .38 3.238.762 7.238.762 3.904 0 6.857-.286 6.571-.572-.857-.857-13.81-1.047-13.81-.19m15.049-.286c0 .572 1.904 1.048 4.19 1.048 4.857 0 4.762-.476-.477-1.429-2.38-.38-3.714-.285-3.714.381m81.619.286c.286.38 8.857.762 19.143.762 10.19 0 18.286-.286 17.905-.667-.953-.952-37.62-1.047-37.048-.095m39.429-.286c-1.334.857-1.334 1.048.19 1.048.953 0 1.81-.476 1.81-1.048 0-1.143-.19-1.143-2 0m2.952.286c0 .38 7.905.762 17.524.762s17.524-.381 17.524-.857-7.905-.762-17.524-.762c-9.62.095-17.524.476-17.524.857m36-.381c0 .476.667.762 1.524.762.762 0 1.524-.286 1.524-.762s-.762-.857-1.524-.857c-.857 0-1.524.38-1.524.857m4 .095c0 .572.667 1.048 1.524 1.048.762 0 1.524-.476 1.524-1.048 0-.476-.762-.952-1.524-.952-.857 0-1.524.476-1.524.952m4 .095c0 .572.476.762 1.048.477.476-.381.952-.857.952-1.048 0-.286-.476-.476-.952-.476-.572 0-1.048.476-1.048 1.047m4-.095c0 .476 2.286.857 5.048.857 2.666-.095 4.952-.571 4.952-.952 0-.476-2.286-.857-4.952-.857-2.762 0-5.048.38-5.048.952m12 0c0 .476 1.619.667 3.524.476 2.38-.19 3.333 0 2.857.762-.381.667-.19.857.476.381 1.905-1.143 8.19-1.428 8.19-.38 0 .476.382.666.953.285 2.667-1.619.286-2.38-7.524-2.38-4.666 0-8.476.38-8.476.856m27.048.572c0 .857.38 1.333.952.952.571-.286.762-1.048.476-1.524-.857-1.428-1.428-1.143-1.428.572m-255.047.285c0 .477.666.858 1.523.858.762 0 1.524-.381 1.524-.858 0-.476-.762-.857-1.524-.857-.857 0-1.524.381-1.524.857m4.001.19c0 .572.475.953 1.047.953a.954.954 0 0 0 .952-.952c0-.572-.476-1.048-.952-1.048-.572 0-1.048.476-1.048 1.048m100.286-.286c3.714.19 9.714.19 13.428 0s.667-.286-6.666-.286c-7.429 0-10.476.096-6.762.286m-26.095 20.572c-.096 4.19.19 7.714.571 7.714s.571-2.381.476-5.238c-.571-9.429-.952-10.381-1.047-2.476m111.142 27.238c1.238 1.238 3.905 1.428 14.667 1.142 7.143-.285 13.429-.761 13.81-1.142.38-.381-5.524-.477-13.143-.286-7.62.19-14 0-14.286-.476-.286-.381-.952-.762-1.524-.762-.571 0-.286.666.476 1.524m-13.333.571c0 .476 1.333.857 2.952.857 1.524 0 3.143.572 3.429 1.334.286.761.476.57.571-.477 0-1.143.572-1.523 1.524-1.143.857.286 1.524.096 1.524-.38 0-.477-2.286-.953-4.952-1.048-2.762-.095-5.048.286-5.048.857m675.999-14.096c0 .572.477.953 1.048.953a.954.954 0 0 0 .952-.952c0-.572-.476-1.048-.952-1.048-.571 0-1.048.476-1.048 1.048M702.71 539.557c.667.286 1.81.286 2.477 0 .666-.285.095-.476-1.238-.476-1.334 0-1.905.19-1.238.476m-188.571.286c.666 2.095 25.523 2.476 25.523.381 0-.857-.571-.952-1.905-.286-1.238.667-1.81.667-1.81-.095 0-.666-.57-.666-1.713-.095-.953.476-3.143.762-4.762.571-5.81-.666-11.524-.762-12.19-.095-.382.381-1.334.095-2.191-.571-1.238-1.048-1.334-.953-.953.19m29.524.667c.19.571 2 .952 3.905.857 3.81-.381 5.81-1.429 3.048-1.62-5.81-.38-7.334-.285-6.953.763m14.095-.476c-.857.571.096.857 2.477.857 2 0 3.714-.19 3.714-.381 0-.857-4.953-1.238-6.19-.476m13.237-.191c0 .572.477 1.048 1.048 1.048s.762-.476.381-1.048c-.286-.476-.762-.952-1.048-.952-.19 0-.38.476-.38.952m2.952-.095c0 .476 1.714.857 3.714.857 3.238.095 3.429 0 1.333-.762-3.523-1.047-5.047-1.143-5.047-.095m-64.191.857c.762.286 1.62.19 1.905-.095.381-.381-.286-.572-1.333-.572-1.143.096-1.333.286-.572.667m-92.761 47.715c0 .19.666.57 1.428.952.857.285 1.524.095 1.524-.381 0-.572-.667-1.048-1.524-1.048-.762 0-1.428.19-1.428.476m8.952.571c0 .572.476.953 1.048.953.571 0 .762-.38.476-.952-.381-.572-.857-1.048-1.048-1.048-.286 0-.476.476-.476 1.048m20.476-.001c-.286.572-.095.953.476.953.572 0 1.048-.38 1.048-.952s-.19-1.048-.476-1.048c-.19 0-.667.476-1.048 1.048m93.81-.286c1.523.19 3.904.19 5.428 0s.286-.38-2.666-.38c-3.048 0-4.286.19-2.762.38M654.14 668.89c0 1.334.19 1.905.475 1.239.286-.667.286-1.81 0-2.476-.285-.667-.476-.096-.476 1.238m159.81-32.096c0 .477.857.667 2 .381 1.142-.285 2-.666 2-.857 0-.285-.858-.476-2-.476-1.143 0-2 .476-2 .952m18.285-.19c.953.19 2.286.19 2.953-.095.666-.19-.096-.476-1.715-.381-1.714 0-2.19.19-1.238.476m4.762-.381c.286.19 2 .667 4 1.048 2.381.38 3.048.285 2-.381-1.428-.857-6.952-1.524-6-.667m171.143-597.047c-2.572 2.762-2.762 3.714-.667 3.714 1.143 0 1.524 1.238 1.524 4.953 0 5.143.952 6.952 2.857 4.666.762-.952.762-2.19-.19-4.571-.953-2.667-.953-3.429 0-3.81 1.714-.571 1.714-7.238 0-7.238-.762 0-2.381 1.048-3.524 2.286m2.476 11.905c-.286.762-.571.571-.571-.572-.096-1.047.19-1.714.476-1.333.38.286.38 1.143.095 1.905m172.571 38.952c-.666.667-1.238 1.905-1.238 2.667 0 1.238.381 1.143 2-.286 1.905-1.714 5.048-1.524 5.048.381 0 .571-1.62 2.476-3.524 4.19-2.286 2.096-3.524 4.096-3.524 5.81 0 2.476.19 2.667 4.286 2.286 4.857-.476 6.667-1.62 4.952-3.334-.762-.762-1.619-.857-2.476-.19-1.143.857-1.81.952-4.476.476-.381-.095 1.048-1.905 3.143-4 4.666-4.857 4.762-8.476.095-8.952-1.714-.19-3.619.285-4.286.952M583.568 98.32c-.762 2-.286 2.952 1.143 2.38.571-.19.666-1.142.285-2.19-.666-1.904-.761-1.904-1.428-.19m9.142-.286c.667.857.953 1.81.572 2.19-.38.382-.095.667.572.667 1.714 0 .952-3.238-.858-3.81-1.238-.38-1.333-.285-.285.953m3.619.096c-.381.476-.095 1.428.571 2.095.857.857 1.524.761 2.572-.667 1.238-1.714 1.333-1.714 1.81 0 .38 1.524.475 1.524.57-.286.096-1.619-.476-2.095-2.38-2.095-1.429 0-2.857.38-3.143.952m2.666.761c0 .572-.571.953-1.142.953-.572 0-.762-.381-.381-.953.285-.571.762-1.047 1.047-1.047.19 0 .476.476.476 1.047m5.619-.475c.286.762.953 1.429 1.43 1.429.475 0 .951-.667.951-1.429 0-.857-.666-1.524-1.523-1.524-.858 0-1.238.572-.858 1.524m3.334-.381c0 .572.571.857 1.333.572s2-.191 2.762.285c.857.572 1.62.476 2.095-.285.572-.858.762-.762.857.285 0 1.334.096 1.334.953 0 .666-1.047.952-1.143.952-.19 0 .762.476 1.047 1.048.666 2.38-1.428.571-2.476-4.476-2.476-3.334 0-5.524.476-5.524 1.143m12.381.381c0 .857.38 1.429.857 1.238.476-.19.952-.762.952-1.238 0-.571-.476-1.143-.952-1.238-.476-.19-.857.38-.857 1.238m-53.905.381c-1.905 1.81 3.62 2.38 6.476.571.572-.285 1.048-.19 1.048.286s.857.762 2 .762 2-.286 2-.762c0-.38.476-.762 1.047-.762.572 0 .762.476.477.953-.381.571-.19 1.047.38 1.047.572 0 1.143-.571 1.143-1.333 0-1.048-1.809-1.333-7.142-1.333-3.81.095-7.238.285-7.429.571m20.571.286c0 1.047.762 1.524 2.477 1.428 2.762-.095 3.238-1.143.952-2-.762-.285-1.524 0-1.524.667 0 .762-.38.667-.952-.286-.857-1.333-.953-1.238-.953.19m-45.428.477c-.19.19-7.524.571-16.286.857-8.666.286-26.19 1.143-38.857 2-12.667.762-27.047 1.62-31.905 1.905-5.619.286-9.142.857-9.428 1.524-.286.857.952 1.047 4 .666 2.38-.38 10-.857 16.857-1.143 6.857-.285 14.762-.666 17.524-.952 2.762-.19 9.714-.667 15.524-1.048 5.714-.285 13.619-.761 17.428-1.047 3.905-.286 13.429-.572 21.238-.667 8.19-.19 14.286-.667 14.286-1.238 0-.476.571-.38 1.238.286 1.619 1.714 3.81 1.524 3.81-.381 0-1.238-1.334-1.524-7.524-1.334-4.096.096-7.62.381-7.905.572m16.381.19c0 .477 1.619.858 3.524.953 1.904.095 3.523-.286 3.523-.857 0-.477-1.619-.953-3.523-.953s-3.524.381-3.524.857m-126 6.858c0 1.428.19 1.523.857.476.476-.762 1.143-1.048 1.429-.572.285.476 2.571.762 5.143.572 6.19-.476 4.952-1.905-1.905-2.096-4.667-.095-5.524.19-5.524 1.62m-8.19-.191c-.286.286-3.715.571-7.62.571-5.428.096-7.142.477-7.142 1.524 0 1.715 1.619 1.81 2.285.096.381-.953.572-.953.572.095.095.762.571.952 1.238.571.571-.38 3.619-.666 6.667-.762 3.428-.095 5.714-.571 5.904-1.333.476-1.238-.857-1.81-1.904-.762m4.666 1.429c.381.571 1.048 1.047 1.62 1.047.57 0 .761-.476.38-1.047-.286-.477-1.047-.953-1.619-.953-.571 0-.667.476-.38.953m-180.858 3.714c-1.047 1.048-.762 14.286.381 14.286.572 0 1.048-3.143 1.048-7.429 0-7.524-.19-8.095-1.429-6.857m1031.618 17.905c-1.238.857-2.19 2.571-2.19 3.81 0 2.285 3.714 6.57 5.619 6.57 1.619 0 2.38 2.667 1.047 3.905-1.523 1.62-3.714 1.429-4.38-.38-.858-2.286-2.286-1.715-2.286.952 0 2.762 2.476 4.571 6.38 4.571 3.525 0 6-4 5.144-8.286a109 109 0 0 1-1.239-6.761c-.476-3.334-2.57-6-4.761-6-.667 0-2.096.761-3.334 1.619m3.429 4c.762 2.095-1.238 4.19-2.667 2.762-1.143-1.143-.286-4.381 1.143-4.381.476 0 1.238.761 1.524 1.619m-1098.856 8c-1.143 2.476-1.238 2.476-2.667.762-.952-1.334-1.524-1.429-1.81-.572-.285.667-1.333 1.238-2.38 1.238-2.572 0-2.477 1.62.095 2.286 1.619.476 2 1.333 2 6.19 0 3.524.286 5.429.952 5.048.572-.381 1.048-3.048 1.048-6.095 0-4.381.19-5.238 1.428-4.762.858.286 1.524 1.714 1.524 3.143 0 3.714 1.048 7.143 2.095 7.143 1.239 0 1.143-15.715-.095-16.477-.571-.285-1.524.572-2.19 2.096m1150.094 15.714c-1.524 2.286-2.953 5.238-3.333 6.476-.667 2.095-.381 2.19 3.333 2.19s4 .286 4.38 3.334l.382 3.238.19-3.238c.095-2.762.476-3.238 3.429-3.429 4-.476 4.571-3.333.571-3.333-1.81 0-2.476-.381-2.095-1.333.476-1.238-2.667-8.19-3.714-8.19-.286 0-1.715 1.904-3.143 4.285m4.095 3.714c0 2.286-.476 2.953-2 2.953-2.38 0-2.476-.286-.38-3.524 2.094-3.143 2.38-3.048 2.38.571M117.95 163.748c0 .477-1.048 1.143-2.191 1.524l-2.286.572 2.19 2c1.905 1.81 2.191 2.761 1.62 6.666-.477 3.714-.381 4.572.762 4.19 1.047-.38 1.428-2.476 1.428-8.19 0-4.19-.38-7.619-.762-7.619-.38 0-.762.381-.762.857m7.048.572c-1.62 2-1.714 10.095-.095 12 .762.857 2.38 1.524 3.714 1.524 1.81 0 2.762-.858 3.905-3.429 2-4.952 1.81-8.19-.762-10-2.857-1.905-5.238-1.905-6.762-.095m5.333 2.19c1.143 2.857.667 7.143-.952 8.476-2 1.62-3.429-.19-3.429-4.666 0-4.381 3.143-7.143 4.381-3.81m1184.856 9.62c2.953 2.475 8.762 6.094 8.762 5.428 0-.381-7.333-5.524-10-6.953-.857-.476-.286.19 1.238 1.524M68.807 184.32c-1.715 3.81-.286 7.524 3.142 8.19 1.62.381 3.048.953 3.048 1.429 0 1.619-1.905 2-4.571.952-3.239-1.238-4.286-.667-2.477 1.429 3.524 4.285 10-.762 10-7.715 0-5.047-1.333-6.761-5.238-6.761-2 0-3.143.761-3.904 2.476m5.904.762c1.715 1.714 1.62 6.762-.19 6.762-1.714 0-4.572-2.667-4.572-4.286 0-1.334 1.905-3.714 3.048-3.714.286 0 1.048.571 1.714 1.238m1284.951 3.904c-.285 1.048-.095 2.19.381 2.477.477.285.953 0 .953-.667 0-.762 1.238-.952 4-.667 2.19.286 4 .19 4-.285 0-.572-.572-.953-1.334-.953-.952 0-.952-.19.096-.857.761-.476-.381-.857-3.143-.857-3.62-.095-4.572.286-4.953 1.81m3.238 4.476c-.666.857-1.047 1.619-.857 1.714s1.238.667 2.381 1.333c2.572 1.429 2.857 2.572 1.143 4.953-1.428 1.904-1.524 1.904-3.524 0-2.095-1.81-2.095-1.81-2.095.095 0 1.619.762 2 4 2.19 3.524.096 4.19-.19 5.048-2.38 1.523-4.191 1.143-5.905-2-7.62-2.572-1.524-3.048-1.524-4.096-.285m3.62 2.19c-.381.381-1.143 0-1.81-.667-1.048-.952-.857-1.047.571-.571.953.38 1.524.952 1.238 1.238M1.664 206.7c-2.19.477-2.286 2.763-.096 3.62.858.285 2.858.571 4.477.571 3.619 0 3.714 1.333.762 9.714-2.096 6-2.096 8.19 0 6.858.571-.286 2.19-4.286 3.714-8.858 1.428-4.476 3.047-8.666 3.524-9.142 1.714-1.81.857-2.762-1.81-2.096-1.524.286-4.095.19-5.81-.285-1.618-.477-3.809-.667-4.761-.381M482.616 394.51c-.381.38-6.096.667-12.667.667-8.571 0-12 .285-11.714 1.047.571 1.62 30.952 1.81 31.904.286.572-.762.762-.762.762.095 0 .762.477 1.238 1.048 1.238s1.048-.571 1.048-1.428c0-.953-.953-1.429-2.762-1.238-1.524.095-3.715-.19-4.857-.572-1.143-.38-2.381-.476-2.762-.095m-48.381 1.143c-4.572.19-8.286.762-8.286 1.238 0 .571 6.381.952 15.524.952 12.571-.095 15.524-.38 15.524-1.523 0-.953-1.143-1.239-3.905-1.048-2.095.19-4.476.667-5.143 1.143-.762.476-1.048.38-.667-.19.286-.572-.571-.953-2.095-.953-1.524.095-6.476.286-10.952.38m59.714.668c0 .952 1.048 1.428 3.048 1.333 1.619 0 2.952-.572 2.952-1.143 0-.667.476-.476.952.38.477.763 1.238 1.144 1.62.763 1.237-1.238-.286-2-4.572-2.381-2.952-.19-4 .095-4 1.048m-130.476 346c.38 1.904.19 4.285-.572 5.618-.952 1.714-.857 2.095.19 1.714 1.43-.476 3.239-7.428 2.382-9.428-1.048-2.857-2.572-1.238-2 2.095m-99.523-1.429c0 .572.475.953 1.047.953.666 0 .762 1.333.38 3.429-.475 2.571-.19 3.523 1.144 4 1.428.571 1.523.476.38-.858-.952-1.238-.952-1.904-.095-2.762 2-2 1.429-5.809-.857-5.809-1.143 0-2 .476-2 1.048m-98.476 3.904c-.286.572-.095 1.238.476 1.62.572.285 1.048 1.618 1.048 2.761.095 2.096.095 2.096 1.048-.19 1.428-3.62-.667-7.143-2.572-4.19m-97.333 1.333c-1.524 1.523-1.524 5.047 0 6.571 3.524 3.524 8.19-1.048 5.333-5.333-1.714-2.762-3.524-3.143-5.333-1.238m5.143 2.19c.666 1.81-1.715 5.048-3.143 4.19-2-1.237-1.429-5.618.667-5.618 1.047 0 2.19.666 2.476 1.428m287.714 8.476c0 1.62-.572 3.143-1.334 3.429-.666.286-.19.571 1.048.571 1.905.096 2.286-.38 2.286-3.428 0-1.905-.477-3.524-1.048-3.524s-.952 1.333-.952 2.952m-95.905 0c-.095.762-.857 1.905-1.714 2.572-1.334.952-.095 1.143 6 1.143 4.19 0 7.333-.19 6.952-.572-.667-.666-1.238-.762-6.286-.952-2.857-.095-4.095-.572-4.38-1.81-.286-1.047-.572-1.238-.572-.38m-98.476 2.38c-.952 3.238-.857 3.715.857 3.715.762 0 1.524-.477 1.524-1.048s-.476-.762-1.048-.381c-.762.381-.857-.286-.476-2 .381-1.429.476-2.571.19-2.571-.285 0-.761 1.047-1.047 2.285m-73.143 1.144c.572 2.57.381 2.761-.952 1.618-2.381-1.905-12.572-2.286-12.572-.476 0 2.38 2.572 2.762 5.429.857 2.476-1.619 2.571-1.619 1.905.19-.667 1.715-.477 1.715 1.047.477s1.905-1.238 3.238.095c1.334 1.333 1.905 1.429 4.19.19 1.62-.857 2.858-.952 3.048-.38.477 1.619 2.191 1.142 2.191-.572 0-2-2.857-3.047-4.286-1.524-.857.857-1.524.572-2.571-1.143-1.238-2.19-1.238-2.19-.667.667m48.477-1.619c0 .476.57 1.333 1.237 2 .858.952.762 1.143-.476 1.143-.952 0-1.905-.381-2.286-.952-.285-.572-1.714-1.048-3.047-1.048-1.429 0-2.286.476-1.905 1.048.857 1.428-.857 1.238-2.476-.286-1.048-.953-1.238-.953-.857.286.571 2 3.81 2.571 4.857.952.571-1.048 1.143-1.048 2.19-.19 1.524 1.238 9.81 1.238 9.81 0 0-.381-1.143-.762-2.572-.762-1.523 0-2.476-.572-2.476-1.524 0-.762-.476-1.524-.952-1.524-.572 0-1.048.38-1.048.857m137.524 0c-1.048 1.048-.476 1.81 1.429 1.905 1.142.095 2.19-.19 2.476-.667.666-.952-3.048-2.095-3.905-1.238m11.524.476c0 .762.285.857 4.19 1.143 1.524.095 2.762-.286 2.762-.857s-1.619-1.048-3.524-1.048c-1.904 0-3.428.286-3.428.762m11.143-.095c.571 1.524 2.762 1.81 2.857.286 0-.572-.667-1.143-1.62-1.334-1.047-.19-1.523.19-1.237 1.048m5.142.095c-.476.857-.571.857 6.381 1.143 2.953.095 5.334-.19 5.334-.571 0-.953.095-.953-6.381-1.143-2.667-.19-5.048.095-5.334.571m19.048-.095c-.286.476.095.857.857.952.667.096 2.286.19 3.524.381 1.238.096 2.286-.095 2.286-.571 0-1.048-6-1.81-6.667-.762m9.333-.476c-3.047.762-1.904 2 1.81 1.905 3.714-.096 4.476-1.048 1.905-2-.857-.381-1.715-.572-1.715-.477-.095 0-1.047.286-2 .572m6.953-.095c-1.238 1.238-.762 1.904 1.333 1.904 1.143 0 1.905-.38 1.714-.952-.476-1.238-2.19-1.81-3.047-.952m4.857.19c-.286.286-.476.857-.476 1.333 0 1.143 3.714 1.048 4.38 0 .572-1.047-2.952-2.285-3.904-1.333m6.19-.19c-.952.952.19 2.38 1.81 2.38.857 0 1.524-.666 1.524-1.523 0-1.524-2.19-2-3.334-.857m-284.095 1.047c-.38.381-.571 1.524-.571 2.476 0 2 2.38 2.572 3.429.858q.714-1 2.571 0c1.143.666 2.476.857 2.952.476 1.334-.762 1.334-3.524 0-3.524a.954.954 0 0 0-.952.952c0 .572-1.524.381-3.429-.38-1.81-.858-3.619-1.143-4-.858m57.905.191c-.38.38-1.619.666-2.857.762-4.952.19-5.62.476-5.62 2 0 1.142.287 1.333 1.239.666.667-.571 3.333-.857 6-.666 3.524.285 4.762 0 4.762-1.048 0-1.524-2.476-2.762-3.524-1.714m2 1.143c.286.571.095.952-.476.952-.572 0-1.048-.381-1.048-.952 0-.572.19-1.048.476-1.048.191 0 .667.476 1.048 1.048m23.905-.858c-.857 1.334 1.619 3.048 3.428 2.381.667-.285 2.858-.571 4.762-.571 1.81 0 3.429-.381 3.429-.952 0-.572-1.333-.667-3.048-.381-1.81.38-3.619.095-4.476-.667-1.333-1.048-1.428-.952-.857.571.476 1.238.286 1.62-.762 1.238-.762-.285-1.333-1.047-1.143-1.619.286-1.428-.476-1.428-1.333 0m17.619.857c.571 1.143 1.143 2 1.428 2 .19 0 .096-.857-.19-2-.286-1.142-.952-2-1.429-2-.476 0-.476.858.19 2m8.477-.666c.381.952.952 1.524 1.238 1.238.381-.381 0-1.143-.667-1.81-.952-1.047-1.047-.857-.57.572m3.523.096c0 .856.667 1.523 1.524 1.523 1.81 0 1.428-2.095-.381-2.762-.667-.19-1.143.381-1.143 1.238m6.953-.762c.57.286.761.953.475 1.429-.38.476-.095.857.572.857 1.428 0 .667-2.286-.857-2.571-.667-.096-.762 0-.19.285m3.523.286c-.762 1.333.857 2.095 3.905 1.81 1.428-.096 2.571-.667 2.571-1.334 0-1.333-5.714-1.714-6.476-.476m8.762-.286c-2.19.857-1.429 1.905 1.714 2.095 2.286.191 2.953-.095 2.953-1.523-.096-1.048-.286-1.238-.572-.477-.286.667-.952 1.239-1.524 1.239-.571 0-.666-.477-.38-1.048.666-1.048-.191-1.143-2.191-.286m6.762.857c0 .762.476 1.429 1.047 1.429.572 0 .762-.381.381-.952-.285-.572-.095-1.048.477-1.048.571 0 1.047.571 1.047 1.143 0 .571.476.762 1.048.38 1.428-.856.19-2.475-2.095-2.475-1.048 0-1.905.666-1.905 1.523m8.762-.381c-.572.286-.667.858-.19 1.048 1.428.762 15.428-.38 15.428-1.238 0-.857-13.714-.762-15.238.19m18.191-.285c0 .571 2 1.143 4.475 1.333 2.477.19 4.572.095 4.572-.286 0-.285 3.238-.38 7.333-.095 4.667.19 7.62-.095 8.095-.762.477-.762-3.142-1.047-11.904-1.047-6.953 0-12.572.38-12.572.857m49.048.095c0 .571 1.047 1.048 2.476 1.048 1.333 0 2.476-.477 2.476-1.048 0-.476-1.143-.952-2.476-.952-1.429 0-2.476.476-2.476.952m35.428.095c.381.572 1.048.762 1.62.381.476-.286.952 0 .952.572 0 .571.38.857.952.476 1.905-1.143 1.048-2.476-1.524-2.476-1.524 0-2.285.476-2 1.047m-217.999 1.048c-.381.571-.191 1.619.38 2.19.858.857 1.143.762 1.143-.095 0-.571.667-.857 1.524-.571.762.38 1.524.19 1.524-.381 0-.572-.762-1.334-1.62-1.62-2.094-.857-2.19-.761-2.951.477m6 0c-1.048 1.619 1.238 3.524 2.666 2.19 1.143-1.143.381-3.333-1.143-3.333-.476 0-1.143.571-1.523 1.143m5.524-.286c0 1.048 2.19 3.143 3.237 3.143.477 0 .381-.857-.19-2-1.143-1.905-3.048-2.667-3.048-1.143"/>
</svg>
